<?xml version="1.0" standalone="yes"?>
<svg xmlns="http://www.w3.org/2000/svg" width="971" height="357">
<path style="fill:#f8f9f9; stroke:none;" d="M0 0L0 357L971 357L971 0L0 0z"/>
<path style="fill:#9da8b6; stroke:none;" d="M41 1L41 2L44 2L41 1z"/>
<path style="fill:#858077; stroke:none;" d="M44.6667 1.33334L45.3333 1.66666L44.6667 1.33334z"/>
<path style="fill:#435773; stroke:none;" d="M1 353L711 353L884 353C907.956 353 937.609 357.497 955.7 337.91C977.144 314.692 969 272.059 969 243L969 1L257 1L86 1C59.4821 1 31.4936 -3.05505 12.1852 19C-7.40778 41.3801 1 85.4148 1 113L1 353z"/>
<path style="fill:#9da8b6; stroke:none;" d="M36.6667 2.33334L37.3333 2.66666L36.6667 2.33334z"/>
<path style="fill:#858077; stroke:none;" d="M38 2L39 3L38 2z"/>
<path style="fill:#9da8b6; stroke:none;" d="M33.6667 3.33334L34.3333 3.66666L33.6667 3.33334M31 4L32 5L31 4z"/>
<path style="fill:#858077; stroke:none;" d="M29 5L30 6L29 5M27 6L28 7L27 6z"/>
<path style="fill:#9da8b6; stroke:none;" d="M25 7L26 8L25 7M23 8L24 9L23 8z"/>
<path style="fill:#858077; stroke:none;" d="M22 9L23 10L22 9z"/>
<path style="fill:#9da8b6; stroke:none;" d="M20 10L21 11L20 10M19 11L20 12L19 11z"/>
<path style="fill:#858077; stroke:none;" d="M18 12L19 13L18 12M17 13L18 14L17 13M16 14L17 15L16 14M15 15L16 16L15 15M14 16L15 17L14 16M13 17L14 18L13 17M12 18L13 19L12 18z"/>
<path style="fill:#9da8b6; stroke:none;" d="M11 19L12 20L11 19M10 20L11 21L10 20z"/>
<path style="fill:#858077; stroke:none;" d="M9 22L10 23L9 22z"/>
<path style="fill:#9da8b6; stroke:none;" d="M8 23L9 24L8 23M7 25L8 26L7 25z"/>
<path style="fill:#858077; stroke:none;" d="M6 27L7 28L6 27M626.667 27.3333L627.333 27.6667L626.667 27.3333z"/>
<path style="fill:#f8f9f9; stroke:none;" d="M626 28L590 97L588 97L572 66C565.567 71.5143 562.225 81.6335 558.139 89C548.205 106.91 538.387 124.914 528.78 143C524.955 150.201 519.955 165.75 512.787 169.972C506.42 173.723 492.293 171 485 171L485 182L769 182L769 171C761.68 171 747.613 173.713 741.21 169.972C733.601 165.527 728.811 149.514 724.576 142C710.492 117.016 698.786 89.9363 683 66L666 97L664 97L639.309 50L626 28z"/>
<path style="fill:#9da8b6; stroke:none;" d="M627 28L628 29L627 28z"/>
<path style="fill:#858077; stroke:none;" d="M5 29L6 30L5 29M625 29L626 30L625 29M628 29L629 30L628 29z"/>
<path style="fill:#9da8b6; stroke:none;" d="M628 30L629 31L628 30M4 31L5 32L4 31M624 31L625 32L624 31z"/>
<path style="fill:#858077; stroke:none;" d="M629 31L630 32L629 31z"/>
<path style="fill:#9da8b6; stroke:none;" d="M3.33333 33.6667L3.66667 34.3333L3.33333 33.6667M623 33L624 34L623 33M630 33L631 34L630 33M622 35L623 36L622 35M631 35L632 36L631 35M2.33333 36.6667L2.66667 37.3333L2.33333 36.6667M621 37L622 38L621 37M632 37L633 38L632 37z"/>
<path style="fill:#858077; stroke:none;" d="M2 38L3 39L2 38M620 38L621 39L620 38z"/>
<path style="fill:#9da8b6; stroke:none;" d="M620 39L621 40L620 39M633 39L634 40L633 39z"/>
<path style="fill:#858077; stroke:none;" d="M619 40L620 41L619 40M634 40L635 41L634 40z"/>
<path style="fill:#9da8b6; stroke:none;" d="M1 41L1 44L2 44L1 41M634 41L635 42L634 41z"/>
<path style="fill:#858077; stroke:none;" d="M618 42L619 43L618 42M635 42L636 43L635 42M1.33333 44.6667L1.66667 45.3333L1.33333 44.6667z"/>
<path style="fill:#9da8b6; stroke:none;" d="M617 44L618 45L617 44z"/>
<path style="fill:#858077; stroke:none;" d="M636 44L637 45L636 44M626.667 45.3333L627.333 45.6667L626.667 45.3333z"/>
<path style="fill:#9da8b6; stroke:none;" d="M616 46L617 47L616 46M625 46L626 47L625 46z"/>
<path style="fill:#435773; stroke:none;" d="M626 46L602.755 89L594.665 106L603.691 125L626 167C637.799 156.886 644.914 134.671 652.309 121C654.724 116.534 659.873 110.372 659.149 105C658.308 98.7618 652.491 91.441 649.424 86C642.055 72.9263 634.346 59.5927 628 46L626 46z"/>
<path style="fill:#9da8b6; stroke:none;" d="M637 46L638 47L637 46z"/>
<path style="fill:#858077; stroke:none;" d="M625 47L626 48L625 47M628 47L629 48L628 47z"/>
<path style="fill:#9da8b6; stroke:none;" d="M615 48L616 49L615 48M624 48L625 49L624 48M629 48L630 49L629 48M638 48L639 49L638 48z"/>
<path style="fill:#858077; stroke:none;" d="M614 49L615 50L614 49M629 49L630 50L629 49z"/>
<path style="fill:#9da8b6; stroke:none;" d="M614 50L615 51L614 50M623 50L624 51L623 50M630 50L631 51L630 50M639 50L640 51L639 50z"/>
<path style="fill:#858077; stroke:none;" d="M613 51L614 52L613 51M640 51L641 52L640 51z"/>
<path style="fill:#9da8b6; stroke:none;" d="M622 52L623 53L622 52M631 52L632 53L631 52M640 52L641 53L640 52z"/>
<path style="fill:#858077; stroke:none;" d="M612 53L613 54L612 53M641 53L642 54L641 53z"/>
<path style="fill:#9da8b6; stroke:none;" d="M621 54L622 55L621 54M632 54L633 55L632 54M611 55L612 56L611 55z"/>
<path style="fill:#858077; stroke:none;" d="M642 55L643 56L642 55M620 56L621 57L620 56z"/>
<path style="fill:#9da8b6; stroke:none;" d="M633 56L634 57L633 56M610 57L611 58L610 57M619 57L620 58L619 57M643 57L644 58L643 57z"/>
<path style="fill:#858077; stroke:none;" d="M619 58L620 59L619 58M634 58L635 59L634 58z"/>
<path style="fill:#9da8b6; stroke:none;" d="M609 59L610 60L609 59M618 59L619 60L618 59M644 59L645 60L644 59z"/>
<path style="fill:#858077; stroke:none;" d="M618 60L619 61L618 60M635 60L636 61L635 60z"/>
<path style="fill:#9da8b6; stroke:none;" d="M608 61L609 62L608 61M617 61L618 62L617 61M636 61L637 62L636 61M645 61L646 62L645 61z"/>
<path style="fill:#858077; stroke:none;" d="M607 62L608 63L607 62M636 62L637 63L636 62z"/>
<path style="fill:#9da8b6; stroke:none;" d="M781 62L781 66L782 66L781 62z"/>
<path style="fill:#f8f9f9; stroke:none;" d="M782 62L782 66L790 66L790 87L794 87L794 66L802 66L802 62L782 62z"/>
<path style="fill:#9da8b6; stroke:none;" d="M802 62L802 66L803 66L802 62z"/>
<path style="fill:#858077; stroke:none;" d="M806 62L806 87L807 87L806 62z"/>
<path style="fill:#f8f9f9; stroke:none;" d="M807 62L807 87L811 87L811 67L812 67L819 87C825.233 84.9869 827.973 73.9672 829 68L830 68L830 87L835 87L835 62C825.262 62.116 823.711 71.9851 821 80C817.183 72.8329 816.608 62.3146 807 62z"/>
<path style="fill:#9da8b6; stroke:none;" d="M813 62L814 63L813 62z"/>
<path style="fill:#858077; stroke:none;" d="M827 62L828 63L827 62z"/>
<path style="fill:#9da8b6; stroke:none;" d="M607 63L608 64L607 63M616 63L617 64L616 63M637 63L638 64L637 63M646 63L647 64L646 63M827 63L828 64L827 63z"/>
<path style="fill:#858077; stroke:none;" d="M606 64L607 65L606 64M647 64L648 65L647 64z"/>
<path style="fill:#9da8b6; stroke:none;" d="M814 64L815 65L814 64z"/>
<path style="fill:#858077; stroke:none;" d="M570.667 65.3333L571.333 65.6667L570.667 65.3333z"/>
<path style="fill:#9da8b6; stroke:none;" d="M615 65L616 66L615 65M638 65L639 66L638 65M647 65L648 66L647 65z"/>
<path style="fill:#858077; stroke:none;" d="M682 65L683 66L682 65z"/>
<path style="fill:#9da8b6; stroke:none;" d="M826 65L827 66L826 65M570 66L571 67L570 66z"/>
<path style="fill:#858077; stroke:none;" d="M605 66L606 67L605 66M648 66L649 67L648 66z"/>
<path style="fill:#9da8b6; stroke:none;" d="M683 66L684 67L683 66z"/>
<path style="fill:#858077; stroke:none;" d="M789 66L789 87L790 87L789 66M794 66L794 87L795 87L794 66M815 66L816 67L815 66M569 67L570 68L569 67z"/>
<path style="fill:#9da8b6; stroke:none;" d="M572 67L573 68L572 67z"/>
<path style="fill:#858077; stroke:none;" d="M614 67L615 68L614 67z"/>
<path style="fill:#9da8b6; stroke:none;" d="M639 67L640 68L639 67M681 67L682 68L681 67z"/>
<path style="fill:#858077; stroke:none;" d="M684 67L685 68L684 67z"/>
<path style="fill:#9da8b6; stroke:none;" d="M811.333 67.6667L811.667 68.3333L811.333 67.6667M815 67L816 68L815 67z"/>
<path style="fill:#858077; stroke:none;" d="M825 67L826 68L825 67z"/>
<path style="fill:#9da8b6; stroke:none;" d="M830 67L831 68L830 67M604 68L605 69L604 68z"/>
<path style="fill:#858077; stroke:none;" d="M649 68L650 69L649 68z"/>
<path style="fill:#9da8b6; stroke:none;" d="M684 68L685 69L684 68M825 68L826 69L825 68M829 68L830 69L829 68z"/>
<path style="fill:#858077; stroke:none;" d="M568 69L569 70L568 69z"/>
<path style="fill:#9da8b6; stroke:none;" d="M573 69L574 70L573 69z"/>
<path style="fill:#858077; stroke:none;" d="M613 69L614 70L613 69M640 69L641 70L640 69z"/>
<path style="fill:#9da8b6; stroke:none;" d="M680 69L681 70L680 69z"/>
<path style="fill:#858077; stroke:none;" d="M685 69L686 70L685 69z"/>
<path style="fill:#9da8b6; stroke:none;" d="M816 69L817 70L816 69z"/>
<path style="fill:#858077; stroke:none;" d="M829 69L830 70L829 69z"/>
<path style="fill:#9da8b6; stroke:none;" d="M603 70L604 71L603 70M612 70L613 71L612 70M650 70L651 71L650 70M812 70L813 71L812 70M824 70L825 71L824 70M567 71L568 72L567 71M574 71L575 72L574 71z"/>
<path style="fill:#858077; stroke:none;" d="M612 71L613 72L612 71M641 71L642 72L641 71z"/>
<path style="fill:#9da8b6; stroke:none;" d="M679 71L680 72L679 71z"/>
<path style="fill:#858077; stroke:none;" d="M686 71L687 72L686 71M812 71L813 72L812 71M817 71L818 72L817 71z"/>
<path style="fill:#9da8b6; stroke:none;" d="M828 71L829 72L828 71M602 72L603 73L602 72M611 72L612 73L611 72M642 72L643 73L642 72M651 72L652 73L651 72z"/>
<path style="fill:#858077; stroke:none;" d="M678 72L679 73L678 72z"/>
<path style="fill:#9da8b6; stroke:none;" d="M817 72L818 73L817 72z"/>
<path style="fill:#858077; stroke:none;" d="M823 72L824 73L823 72z"/>
<path style="fill:#9da8b6; stroke:none;" d="M566 73L567 74L566 73M575 73L576 74L575 73z"/>
<path style="fill:#858077; stroke:none;" d="M601 73L602 74L601 73M642 73L643 74L642 73z"/>
<path style="fill:#9da8b6; stroke:none;" d="M678 73L679 74L678 73M687 73L688 74L687 73M813 73L814 74L813 73M823 73L824 74L823 73M827 73L828 74L827 73z"/>
<path style="fill:#858077; stroke:none;" d="M576 74L577 75L576 74z"/>
<path style="fill:#9da8b6; stroke:none;" d="M601 74L602 75L601 74M610 74L611 75L610 74M643 74L644 75L643 74M652 74L653 75L652 74z"/>
<path style="fill:#858077; stroke:none;" d="M677 74L678 75L677 74z"/>
<path style="fill:#9da8b6; stroke:none;" d="M818 74L819 75L818 74z"/>
<path style="fill:#858077; stroke:none;" d="M827 74L828 75L827 74z"/>
<path style="fill:#9da8b6; stroke:none;" d="M565 75L566 76L565 75M576 75L577 76L576 75z"/>
<path style="fill:#858077; stroke:none;" d="M600 75L601 76L600 75M653 75L654 76L653 75z"/>
<path style="fill:#9da8b6; stroke:none;" d="M688 75L689 76L688 75M814 75L815 76L814 75M822 75L823 76L822 75z"/>
<path style="fill:#858077; stroke:none;" d="M577 76L578 77L577 76z"/>
<path style="fill:#9da8b6; stroke:none;" d="M609 76L610 77L609 76M644 76L645 77L644 76M653 76L654 77L653 76z"/>
<path style="fill:#858077; stroke:none;" d="M676 76L677 77L676 76M814 76L815 77L814 76M819 76L820 77L819 76z"/>
<path style="fill:#9da8b6; stroke:none;" d="M826 76L827 77L826 76M564 77L565 78L564 77z"/>
<path style="fill:#858077; stroke:none;" d="M599 77L600 78L599 77M654 77L655 78L654 77z"/>
<path style="fill:#9da8b6; stroke:none;" d="M689 77L690 78L689 77M819 77L820 78L819 77z"/>
<path style="fill:#858077; stroke:none;" d="M563 78L564 79L563 78M578 78L579 79L578 78M608 78L609 79L608 78z"/>
<path style="fill:#9da8b6; stroke:none;" d="M645 78L646 79L645 78M675 78L676 79L675 78M815 78L816 79L815 78M821 78L822 79L821 78M825 78L826 79L825 78M563 79L564 80L563 79M598 79L599 80L598 79z"/>
<path style="fill:#858077; stroke:none;" d="M655 79L656 80L655 79z"/>
<path style="fill:#9da8b6; stroke:none;" d="M690 79L691 80L690 79z"/>
<path style="fill:#858077; stroke:none;" d="M820 79L821 80L820 79M825 79L826 80L825 79M562 80L563 81L562 80z"/>
<path style="fill:#9da8b6; stroke:none;" d="M579 80L580 81L579 80z"/>
<path style="fill:#858077; stroke:none;" d="M607 80L608 81L607 80z"/>
<path style="fill:#9da8b6; stroke:none;" d="M646 80L647 81L646 80M674 80L675 81L674 80z"/>
<path style="fill:#858077; stroke:none;" d="M691 80L692 81L691 80z"/>
<path style="fill:#9da8b6; stroke:none;" d="M816 80L817 81L816 80M597 81L598 82L597 81M606 81L607 82L606 81M656 81L657 82L656 81M691 81L692 82L691 81M824 81L825 82L824 81M561 82L562 83L561 82M571 82L572 83L571 82M580 82L581 83L580 82z"/>
<path style="fill:#858077; stroke:none;" d="M606 82L607 83L606 82M647 82L648 83L647 82z"/>
<path style="fill:#9da8b6; stroke:none;" d="M673 82L674 83L673 82M682 82L684 84L682 82z"/>
<path style="fill:#858077; stroke:none;" d="M692 82L693 83L692 82M570.667 83.3333L571.333 83.6667L570.667 83.3333z"/>
<path style="fill:#9da8b6; stroke:none;" d="M596 83L597 84L596 83M605 83L606 84L605 83M648 83L649 84L648 83M657 83L658 84L657 83z"/>
<path style="fill:#858077; stroke:none;" d="M672 83L673 84L672 83z"/>
<path style="fill:#435773; stroke:none;" d="M682 83L671.056 106L677.861 121L696.309 155L705.39 169.972L730 171C724.057 150.408 708.528 129.85 698.309 111C693.452 102.041 689.286 90.1865 682 83z"/>
<path style="fill:#9da8b6; stroke:none;" d="M817 83L818 84L817 83M823 83L824 84L823 83M560 84L561 85L560 84z"/>
<path style="fill:#435773; stroke:none;" d="M570 84L537.691 144L524 171L548.39 169.972L556.424 157L575.424 122L582.864 106L572 84L570 84z"/>
<path style="fill:#9da8b6; stroke:none;" d="M572 84L573 85L572 84M581 84L582 85L581 84z"/>
<path style="fill:#858077; stroke:none;" d="M595 84L596 85L595 84M648 84L649 85L648 84z"/>
<path style="fill:#9da8b6; stroke:none;" d="M672 84L673 85L672 84M681 84L682 85L681 84z"/>
<path style="fill:#858077; stroke:none;" d="M693 84L694 85L693 84M823 84L824 85L823 84M569 85L570 86L569 85M582 85L583 86L582 85z"/>
<path style="fill:#9da8b6; stroke:none;" d="M595 85L596 86L595 85M604 85L605 86L604 85M649 85L650 86L649 85M658 85L659 86L658 85z"/>
<path style="fill:#858077; stroke:none;" d="M671 85L672 86L671 85M684 85L685 86L684 85z"/>
<path style="fill:#9da8b6; stroke:none;" d="M818 85L819 86L818 85M559 86L560 87L559 86M568 86L569 87L568 86M573 86L574 87L573 86M582 86L583 87L582 86z"/>
<path style="fill:#858077; stroke:none;" d="M594 86L595 87L594 86M649 86L650 87L649 86z"/>
<path style="fill:#9da8b6; stroke:none;" d="M680 86L681 87L680 86M694 86L695 87L694 86M822 86L823 87L822 86z"/>
<path style="fill:#858077; stroke:none;" d="M568 87L569 88L568 87M583 87L584 88L583 87z"/>
<path style="fill:#9da8b6; stroke:none;" d="M594 87L595 88L594 87M603 87L604 88L603 87M650 87L651 88L650 87M659 87L660 88L659 87z"/>
<path style="fill:#858077; stroke:none;" d="M670 87L671 88L670 87M685 87L686 88L685 87z"/>
<path style="fill:#9da8b6; stroke:none;" d="M558 88L559 89L558 88M567 88L568 89L567 88M574 88L575 89L574 88z"/>
<path style="fill:#858077; stroke:none;" d="M593 88L594 89L593 88M660 88L661 89L660 88z"/>
<path style="fill:#9da8b6; stroke:none;" d="M679 88L680 89L679 88M686 88L687 89L686 88M695 88L696 89L695 88z"/>
<path style="fill:#858077; stroke:none;" d="M557 89L558 90L557 89M584 89L585 90L584 89z"/>
<path style="fill:#9da8b6; stroke:none;" d="M602 89L603 90L602 89M651 89L652 90L651 89M660 89L661 90L660 89M669 89L670 90L669 89z"/>
<path style="fill:#858077; stroke:none;" d="M686 89L687 90L686 89z"/>
<path style="fill:#9da8b6; stroke:none;" d="M557 90L558 91L557 90M566 90L567 91L566 90M575 90L576 91L575 90M592 90L593 91L592 90z"/>
<path style="fill:#858077; stroke:none;" d="M661 90L662 91L661 90M678 90L679 91L678 90z"/>
<path style="fill:#9da8b6; stroke:none;" d="M687 90L688 91L687 90M696 90L697 91L696 90z"/>
<path style="fill:#858077; stroke:none;" d="M556 91L557 92L556 91z"/>
<path style="fill:#9da8b6; stroke:none;" d="M585 91L586 92L585 91z"/>
<path style="fill:#858077; stroke:none;" d="M601 91L602 92L601 91z"/>
<path style="fill:#9da8b6; stroke:none;" d="M652 91L653 92L652 91M668 91L669 92L668 91M677 91L678 92L677 91z"/>
<path style="fill:#858077; stroke:none;" d="M697 91L698 92L697 91z"/>
<path style="fill:#9da8b6; stroke:none;" d="M565 92L566 93L565 92z"/>
<path style="fill:#858077; stroke:none;" d="M576 92L577 93L576 92z"/>
<path style="fill:#9da8b6; stroke:none;" d="M591 92L592 93L591 92z"/>
<path style="fill:#858077; stroke:none;" d="M662 92L663 93L662 92M677 92L678 93L677 92z"/>
<path style="fill:#9da8b6; stroke:none;" d="M688 92L689 93L688 92M697 92L698 93L697 92z"/>
<path style="fill:#858077; stroke:none;" d="M555 93L556 94L555 93z"/>
<path style="fill:#9da8b6; stroke:none;" d="M586 93L587 94L586 93z"/>
<path style="fill:#858077; stroke:none;" d="M600 93L601 94L600 93M653 93L654 94L653 93z"/>
<path style="fill:#9da8b6; stroke:none;" d="M667 93L668 94L667 93M676 93L677 94L676 93z"/>
<path style="fill:#858077; stroke:none;" d="M698 93L699 94L698 93M564 94L565 95L564 94M577 94L578 95L577 94z"/>
<path style="fill:#9da8b6; stroke:none;" d="M590 94L591 95L590 94M599 94L600 95L599 94M663 94L664 95L663 94z"/>
<path style="fill:#858077; stroke:none;" d="M676 94L677 95L676 94z"/>
<path style="fill:#9da8b6; stroke:none;" d="M689 94L690 95L689 94M554 95L555 96L554 95M578 95L579 96L578 95M587 95L588 96L587 95z"/>
<path style="fill:#858077; stroke:none;" d="M599 95L600 96L599 95M654 95L655 96L654 95z"/>
<path style="fill:#9da8b6; stroke:none;" d="M666 95L667 96L666 95M675 95L676 96L675 95z"/>
<path style="fill:#858077; stroke:none;" d="M699 95L700 96L699 95M563 96L564 97L563 96M578 96L579 97L578 96z"/>
<path style="fill:#9da8b6; stroke:none;" d="M589 96L590 97L589 96M598 96L599 97L598 96M655 96L656 97L655 96M664 96L665 97L664 96z"/>
<path style="fill:#858077; stroke:none;" d="M665 96L666 97L665 96z"/>
<path style="fill:#9da8b6; stroke:none;" d="M690 96L691 97L690 96M553 97L554 98L553 97M562 97L563 98L562 97M579 97L580 98L579 97z"/>
<path style="fill:#858077; stroke:none;" d="M655 97L656 98L655 97z"/>
<path style="fill:#9da8b6; stroke:none;" d="M674 97L675 98L674 97M700 97L701 98L700 97z"/>
<path style="fill:#858077; stroke:none;" d="M562 98L563 99L562 98z"/>
<path style="fill:#9da8b6; stroke:none;" d="M597 98L598 99L597 98M656 98L657 99L656 98z"/>
<path style="fill:#858077; stroke:none;" d="M691 98L692 99L691 98z"/>
<path style="fill:#9da8b6; stroke:none;" d="M552 99L553 100L552 99M561 99L562 100L561 99M580 99L581 100L580 99M673 99L674 100L673 99M692 99L693 100L692 99M701 99L702 100L701 99z"/>
<path style="fill:#858077; stroke:none;" d="M551 100L552 101L551 100z"/>
<path style="fill:#9da8b6; stroke:none;" d="M596 100L597 101L596 100M657 100L658 101L657 100z"/>
<path style="fill:#858077; stroke:none;" d="M692 100L693 101L692 100M170 101L170 102L199 103C192.63 98.1739 177.846 101 170 101M227 101L227 102L255 102L255 185L256 165L256 122L254.397 102.028L227 101M270 185L271 185L271 102L327 102C316.02 97.3926 296.944 101 285 101C281.524 101 273.468 99.5219 271.028 102.603C267.651 106.868 270 119.722 270 125L270 185M338 101L338 102L377 102C366.726 97.6889 349.172 101 338 101M414 101L414 102L433 102L433 156C437.507 145.258 434 126.682 434 115C434 111.684 435.351 104.368 432.397 102.028C428.692 99.0934 418.557 101 414 101M460 159L461 159L461 102L476 102L476 163C478.085 158.031 477 151.35 477 146C477 133.561 480.216 116.051 476.682 104.148C475.419 99.8942 464.646 99.6183 461.603 102.028C458.4 104.565 460 113.368 460 117L460 159z"/>
<path style="fill:#9da8b6; stroke:none;" d="M551 101L552 102L551 101M560 101L561 102L560 101M581 101L582 102L581 101z"/>
<path style="fill:#858077; stroke:none;" d="M672 101L673 102L672 101z"/>
<path style="fill:#9da8b6; stroke:none;" d="M693 101L694 102L693 101M702 101L703 102L702 101z"/>
<path style="fill:#f9aa34; stroke:none;" d="M169 102L169 185L185 185L185 119L186 119L198.709 167L204.703 183.972L217 185L236 119L237 119L237 185L255 185L255 102L226 102L212 150C207.395 139.298 205.316 127.203 202.14 116C201.146 112.491 200.53 105.314 197.436 103.028C191.983 98.9988 175.694 102 169 102M271 102L271 185L327 185L327 168L290 168L290 150L319 150L319 135L290 135L290 118L327 118L327 102L271 102M338 102L338 185L357 185L357 152L368.581 153.028L381.818 183.397L402 185C399.328 175.231 387.989 160.072 389.213 150.093C389.728 145.891 396.33 142.721 398.467 138.996C404.021 129.315 401.211 114.49 392.957 107.225C380.943 96.6493 352.96 102 338 102z"/>
<path style="fill:#858077; stroke:none;" d="M382.667 102.333L383.333 102.667L382.667 102.333z"/>
<path style="fill:#f9aa34; stroke:none;" d="M413 102L413 147C413.003 155.572 412.982 166.388 417.367 173.999C427.172 191.019 463.017 191.174 472.911 173.999C477.158 166.628 476 157.141 476 149L476 102L461 102L461 149C460.997 155.69 461.2 164.069 454.956 168.262C447.828 173.048 436.051 169.842 434.214 160.999C430.334 142.323 433 121.01 433 102L413 102z"/>
<path style="fill:#858077; stroke:none;" d="M550 102L551 103L550 102M595 102L596 103L595 102z"/>
<path style="fill:#9da8b6; stroke:none;" d="M658 102L659 103L658 102z"/>
<path style="fill:#858077; stroke:none;" d="M693 102L694 103L693 102M225.333 103.667L225.667 104.333L225.333 103.667M386 103L387 104L386 103z"/>
<path style="fill:#9da8b6; stroke:none;" d="M559 103L560 104L559 103z"/>
<path style="fill:#858077; stroke:none;" d="M582 103L583 104L582 103M671 103L672 104L671 103z"/>
<path style="fill:#9da8b6; stroke:none;" d="M694 103L695 104L694 103M703 103L704 104L703 103z"/>
<path style="fill:#858077; stroke:none;" d="M389 104L390 105L389 104M549 104L550 105L549 104M594 104L595 105L594 104M659 104L660 105L659 104z"/>
<path style="fill:#9da8b6; stroke:none;" d="M670 104L671 105L670 104z"/>
<path style="fill:#858077; stroke:none;" d="M704 104L705 105L704 104M199.333 105.667L199.667 106.333L199.333 105.667z"/>
<path style="fill:#9da8b6; stroke:none;" d="M558 105L559 106L558 105z"/>
<path style="fill:#858077; stroke:none;" d="M583 105L584 106L583 105z"/>
<path style="fill:#9da8b6; stroke:none;" d="M593.333 105.667L593.667 106.333L593.333 105.667z"/>
<path style="fill:#858077; stroke:none;" d="M670 105L671 106L670 105z"/>
<path style="fill:#9da8b6; stroke:none;" d="M695 105L696 106L695 105M704 105L705 106L704 105z"/>
<path style="fill:#858077; stroke:none;" d="M392 106L393 107L392 106z"/>
<path style="fill:#9da8b6; stroke:none;" d="M548 106L549 107L548 106M660 106L661 107L660 106z"/>
<path style="fill:#858077; stroke:none;" d="M705 106L706 107L705 106M224 107L225 108L224 107M393 107L394 108L393 107M557 107L558 108L557 107z"/>
<path style="fill:#9da8b6; stroke:none;" d="M583 107L584 108L583 107z"/>
<path style="fill:#858077; stroke:none;" d="M659 107L660 108L659 107z"/>
<path style="fill:#9da8b6; stroke:none;" d="M670 107L671 108L670 107M696 107L697 108L696 107z"/>
<path style="fill:#858077; stroke:none;" d="M394 108L395 109L394 108z"/>
<path style="fill:#9da8b6; stroke:none;" d="M547 108L548 109L547 108z"/>
<path style="fill:#858077; stroke:none;" d="M582 108L583 109L582 108z"/>
<path style="fill:#9da8b6; stroke:none;" d="M594 108L595 109L594 108M659 108L660 109L659 108M706 108L707 109L706 108z"/>
<path style="fill:#858077; stroke:none;" d="M200.333 109.667L200.667 110.333L200.333 109.667M395 109L396 110L395 109M556 109L557 110L556 109z"/>
<path style="fill:#9da8b6; stroke:none;" d="M582 109L583 110L582 109z"/>
<path style="fill:#858077; stroke:none;" d="M595 109L596 110L595 109M658 109L659 110L658 109z"/>
<path style="fill:#9da8b6; stroke:none;" d="M671 109L672 110L671 109z"/>
<path style="fill:#858077; stroke:none;" d="M697 109L698 110L697 109M223.333 110.667L223.667 111.333L223.333 110.667z"/>
<path style="fill:#9da8b6; stroke:none;" d="M546 110L547 111L546 110M555 110L556 111L555 110z"/>
<path style="fill:#858077; stroke:none;" d="M581 110L582 111L581 110z"/>
<path style="fill:#9da8b6; stroke:none;" d="M595 110L596 111L595 110z"/>
<path style="fill:#858077; stroke:none;" d="M672 110L673 111L672 110z"/>
<path style="fill:#9da8b6; stroke:none;" d="M707 110L708 111L707 110z"/>
<path style="fill:#858077; stroke:none;" d="M555 111L556 112L555 111M596 111L597 112L596 111M657 111L658 112L657 111z"/>
<path style="fill:#9da8b6; stroke:none;" d="M672 111L673 112L672 111z"/>
<path style="fill:#858077; stroke:none;" d="M698 111L699 112L698 111M397 112L398 113L397 112z"/>
<path style="fill:#9da8b6; stroke:none;" d="M545 112L546 113L545 112M554 112L555 113L554 112z"/>
<path style="fill:#858077; stroke:none;" d="M580 112L581 113L580 112M673 112L674 113L673 112z"/>
<path style="fill:#9da8b6; stroke:none;" d="M699 112L700 113L699 112M708 112L709 113L708 112z"/>
<path style="fill:#858077; stroke:none;" d="M201 113L202 114L201 113M544 113L545 114L544 113M597 113L598 114L597 113z"/>
<path style="fill:#9da8b6; stroke:none;" d="M656 113L657 114L656 113M673 113L674 114L673 113z"/>
<path style="fill:#858077; stroke:none;" d="M699 113L700 114L699 113M222 114L223 115L222 114M398 114L399 115L398 114z"/>
<path style="fill:#9da8b6; stroke:none;" d="M544 114L545 115L544 114M553 114L554 115L553 114M579 114L580 115L579 114z"/>
<path style="fill:#858077; stroke:none;" d="M674 114L675 115L674 114z"/>
<path style="fill:#9da8b6; stroke:none;" d="M700 114L701 115L700 114M709 114L710 115L709 114z"/>
<path style="fill:#858077; stroke:none;" d="M543 115L544 116L543 115M588 115L590 117L588 115z"/>
<path style="fill:#9da8b6; stroke:none;" d="M598 115L599 116L598 115M655 115L656 116L655 115M664.667 115.333L665.333 115.667L664.667 115.333z"/>
<path style="fill:#858077; stroke:none;" d="M710 115L711 116L710 115M202.333 116.667L202.667 117.333L202.333 116.667M399 116L400 117L399 116z"/>
<path style="fill:#9da8b6; stroke:none;" d="M552 116L553 117L552 116M578 116L579 117L578 116z"/>
<path style="fill:#435773; stroke:none;" d="M588 116L559 171L619 171C611.239 154.376 601.157 128.757 588 116z"/>
<path style="fill:#858077; stroke:none;" d="M664 116L665 117L664 116z"/>
<path style="fill:#435773; stroke:none;" d="M665 116C653.539 132.098 642.823 152.845 635 171L695 171C687.698 153.46 677.196 130.567 665 116z"/>
<path style="fill:#9da8b6; stroke:none;" d="M675 116L676 117L675 116M701 116L702 117L701 116M710 116L711 117L710 116z"/>
<path style="fill:#858077; stroke:none;" d="M221 117L222 118L221 117z"/>
<path style="fill:#435773; stroke:none;" d="M357 117L357 137C362.73 137 371.756 138.696 376.892 135.821C382.746 132.544 383.254 122.91 377.66 119.14C372.228 115.479 363.202 117 357 117z"/>
<path style="fill:#858077; stroke:none;" d="M373 117L373 118L376 118L373 117M542 117L543 118L542 117M587 117L588 118L587 117z"/>
<path style="fill:#9da8b6; stroke:none;" d="M590 117L591 118L590 117M599 117L600 118L599 117M654 117L655 118L654 117M663 117L664 118L663 117z"/>
<path style="fill:#858077; stroke:none;" d="M666 117L667 118L666 117M711 117L712 118L711 117M377 118L378 119L377 118M400.333 118.667L400.667 119.333L400.333 118.667M551 118L552 119L551 118z"/>
<path style="fill:#9da8b6; stroke:none;" d="M577 118L578 119L577 118M586 118L587 119L586 118z"/>
<path style="fill:#858077; stroke:none;" d="M590 118L591 119L590 118M653 118L654 119L653 118z"/>
<path style="fill:#9da8b6; stroke:none;" d="M676 118L677 119L676 118M702 118L703 119L702 118z"/>
<path style="fill:#858077; stroke:none;" d="M185.333 119.667L185.667 120.333L185.333 119.667M236 119L236 185L237 185L237 140L236 119z"/>
<path style="fill:#9da8b6; stroke:none;" d="M541 119L542 120L541 119z"/>
<path style="fill:#858077; stroke:none;" d="M586 119L587 120L586 119z"/>
<path style="fill:#9da8b6; stroke:none;" d="M591 119L592 120L591 119M600 119L601 120L600 119M653 119L654 120L653 119M662 119L663 120L662 119z"/>
<path style="fill:#858077; stroke:none;" d="M667 119L668 120L667 119M712 119L713 120L712 119M203 120L204 121L203 120M220.333 120.667L220.667 121.333L220.333 120.667M379 120L380 121L379 120M550 120L551 121L550 120z"/>
<path style="fill:#9da8b6; stroke:none;" d="M576 120L577 121L576 120M585 120L586 121L585 120z"/>
<path style="fill:#858077; stroke:none;" d="M591 120L592 121L591 120M652 120L653 121L652 120z"/>
<path style="fill:#9da8b6; stroke:none;" d="M668 120L669 121L668 120M677 120L678 121L677 120z"/>
<path style="fill:#858077; stroke:none;" d="M703 120L704 121L703 120z"/>
<path style="fill:#9da8b6; stroke:none;" d="M540 121L541 122L540 121M549 121L550 122L549 121z"/>
<path style="fill:#858077; stroke:none;" d="M575 121L576 122L575 121z"/>
<path style="fill:#9da8b6; stroke:none;" d="M592 121L593 122L592 121M601 121L602 122L601 121M652 121L653 122L652 121M661 121L662 122L661 121z"/>
<path style="fill:#858077; stroke:none;" d="M668 121L669 122L668 121z"/>
<path style="fill:#9da8b6; stroke:none;" d="M713 121L714 122L713 121z"/>
<path style="fill:#858077; stroke:none;" d="M549 122L550 123L549 122z"/>
<path style="fill:#9da8b6; stroke:none;" d="M575 122L576 123L575 122M584 122L585 123L584 122z"/>
<path style="fill:#858077; stroke:none;" d="M602 122L603 123L602 122M651 122L652 123L651 122z"/>
<path style="fill:#9da8b6; stroke:none;" d="M669 122L670 123L669 122M678 122L679 123L678 122z"/>
<path style="fill:#858077; stroke:none;" d="M704 122L705 123L704 122M186.333 123.667L186.667 124.333L186.333 123.667M381.333 123.667L381.667 124.333L381.333 123.667M401 123L401 131L402 131L401 123z"/>
<path style="fill:#9da8b6; stroke:none;" d="M539 123L540 124L539 123M548 123L549 124L548 123z"/>
<path style="fill:#858077; stroke:none;" d="M574 123L575 124L574 123z"/>
<path style="fill:#9da8b6; stroke:none;" d="M593 123L594 124L593 123M602 123L603 124L602 123M660 123L661 124L660 123z"/>
<path style="fill:#858077; stroke:none;" d="M679 123L680 124L679 123z"/>
<path style="fill:#9da8b6; stroke:none;" d="M705 123L706 124L705 123M714 123L715 124L714 123z"/>
<path style="fill:#858077; stroke:none;" d="M204 124L205 125L204 124M219 124L220 125L219 124M234.333 124.667L234.667 125.333L234.333 124.667M538 124L539 125L538 124z"/>
<path style="fill:#9da8b6; stroke:none;" d="M583 124L584 125L583 124z"/>
<path style="fill:#858077; stroke:none;" d="M603 124L604 125L603 124z"/>
<path style="fill:#9da8b6; stroke:none;" d="M650 124L651 125L650 124M670 124L671 125L670 124M679 124L680 125L679 124z"/>
<path style="fill:#858077; stroke:none;" d="M705 124L706 125L705 124z"/>
<path style="fill:#9da8b6; stroke:none;" d="M538 125L539 126L538 125M547 125L548 126L547 125z"/>
<path style="fill:#858077; stroke:none;" d="M573 125L574 126L573 125z"/>
<path style="fill:#9da8b6; stroke:none;" d="M594 125L595 126L594 125z"/>
<path style="fill:#858077; stroke:none;" d="M659 125L660 126L659 125M680 125L681 126L680 125z"/>
<path style="fill:#9da8b6; stroke:none;" d="M706 125L707 126L706 125M715 125L716 126L715 125z"/>
<path style="fill:#858077; stroke:none;" d="M537 126L538 127L537 126M582 126L583 127L582 126M604 126L605 127L604 126z"/>
<path style="fill:#9da8b6; stroke:none;" d="M649 126L650 127L649 126M671 126L672 127L671 126z"/>
<path style="fill:#858077; stroke:none;" d="M716 126L717 127L716 126M187 127L188 128L187 127M205.333 127.667L205.667 128.333L205.333 127.667M218.333 127.667L218.667 128.333L218.333 127.667z"/>
<path style="fill:#9da8b6; stroke:none;" d="M546 127L547 128L546 127M572 127L573 128L572 127z"/>
<path style="fill:#858077; stroke:none;" d="M595 127L596 128L595 127M658 127L659 128L658 127M681 127L682 128L681 127z"/>
<path style="fill:#9da8b6; stroke:none;" d="M707 127L708 128L707 127M716 127L717 128L716 127z"/>
<path style="fill:#858077; stroke:none;" d="M233 128L234 129L233 128M536 128L537 129L536 128M581 128L582 129L581 128z"/>
<path style="fill:#9da8b6; stroke:none;" d="M605 128L606 129L605 128M648 128L649 129L648 128M657 128L658 129L657 128z"/>
<path style="fill:#858077; stroke:none;" d="M672 128L673 129L672 128M717 128L718 129L717 128M381.333 129.667L381.667 130.333L381.333 129.667z"/>
<path style="fill:#9da8b6; stroke:none;" d="M545 129L546 130L545 129M571 129L572 130L571 129M580 129L581 130L580 129z"/>
<path style="fill:#858077; stroke:none;" d="M596 129L597 130L596 129M657 129L658 130L657 129z"/>
<path style="fill:#9da8b6; stroke:none;" d="M682 129L683 130L682 129M708 129L709 130L708 129z"/>
<path style="fill:#858077; stroke:none;" d="M188.333 130.667L188.667 131.333L188.333 130.667z"/>
<path style="fill:#9da8b6; stroke:none;" d="M535 130L536 131L535 130z"/>
<path style="fill:#858077; stroke:none;" d="M580 130L581 131L580 130z"/>
<path style="fill:#9da8b6; stroke:none;" d="M597 130L598 131L597 130M606 130L607 131L606 130M647 130L648 131L647 130M656 130L657 131L656 130z"/>
<path style="fill:#858077; stroke:none;" d="M673 130L674 131L673 130M718 130L719 131L718 130M206 131L207 132L206 131M217 131L218 132L217 131M232.333 131.667L232.667 132.333L232.333 131.667M544 131L545 132L544 131z"/>
<path style="fill:#9da8b6; stroke:none;" d="M570 131L571 132L570 131M579 131L580 132L579 131z"/>
<path style="fill:#858077; stroke:none;" d="M597 131L598 132L597 131M646 131L647 132L646 131z"/>
<path style="fill:#9da8b6; stroke:none;" d="M674 131L675 132L674 131M683 131L684 132L683 131M709 131L710 132L709 131z"/>
<path style="fill:#858077; stroke:none;" d="M380 132L381 133L380 132z"/>
<path style="fill:#9da8b6; stroke:none;" d="M534 132L535 133L534 132z"/>
<path style="fill:#858077; stroke:none;" d="M569 132L570 133L569 132z"/>
<path style="fill:#9da8b6; stroke:none;" d="M598 132L599 133L598 132M607 132L608 133L607 132M646 132L647 133L646 132M655 132L656 133L655 132z"/>
<path style="fill:#858077; stroke:none;" d="M674 132L675 133L674 132z"/>
<path style="fill:#9da8b6; stroke:none;" d="M719 132L720 133L719 132z"/>
<path style="fill:#858077; stroke:none;" d="M543 133L544 134L543 133z"/>
<path style="fill:#9da8b6; stroke:none;" d="M569 133L570 134L569 133M578 133L579 134L578 133z"/>
<path style="fill:#858077; stroke:none;" d="M608 133L609 134L608 133M645 133L646 134L645 133z"/>
<path style="fill:#9da8b6; stroke:none;" d="M675 133L676 134L675 133M684 133L685 134L684 133z"/>
<path style="fill:#858077; stroke:none;" d="M710 133L711 134L710 133M189 134L190 135L189 134M207.333 134.667L207.667 135.333L207.333 134.667M216 134L217 135L216 134M231.333 134.667L231.667 135.333L231.333 134.667M290 134L290 135L319 135L290 134M400 134L401 135L400 134z"/>
<path style="fill:#9da8b6; stroke:none;" d="M533 134L534 135L533 134M542 134L543 135L542 134z"/>
<path style="fill:#858077; stroke:none;" d="M568 134L569 135L568 134z"/>
<path style="fill:#9da8b6; stroke:none;" d="M599 134L600 135L599 134M608 134L609 135L608 134M654 134L655 135L654 134z"/>
<path style="fill:#858077; stroke:none;" d="M685 134L686 135L685 134z"/>
<path style="fill:#9da8b6; stroke:none;" d="M720 134L721 135L720 134z"/>
<path style="fill:#858077; stroke:none;" d="M542 135L543 136L542 135z"/>
<path style="fill:#9da8b6; stroke:none;" d="M577 135L578 136L577 135z"/>
<path style="fill:#858077; stroke:none;" d="M609 135L610 136L609 135M644 135L645 136L644 135z"/>
<path style="fill:#9da8b6; stroke:none;" d="M676 135L677 136L676 135M685 135L686 136L685 135z"/>
<path style="fill:#858077; stroke:none;" d="M711 135L712 136L711 135M376 136L377 137L376 136z"/>
<path style="fill:#9da8b6; stroke:none;" d="M532 136L533 137L532 136M541 136L542 137L541 136z"/>
<path style="fill:#858077; stroke:none;" d="M567 136L568 137L567 136z"/>
<path style="fill:#9da8b6; stroke:none;" d="M600 136L601 137L600 136z"/>
<path style="fill:#858077; stroke:none;" d="M653 136L654 137L653 136M686 136L687 137L686 136z"/>
<path style="fill:#9da8b6; stroke:none;" d="M712 136L713 137L712 136M721 136L722 137L721 136z"/>
<path style="fill:#858077; stroke:none;" d="M190.333 137.667L190.667 138.333L190.333 137.667M215.333 137.667L215.667 138.333L215.333 137.667M357 137L357 138L374 138L357 137M399 137L400 138L399 137M531 137L532 138L531 137z"/>
<path style="fill:#9da8b6; stroke:none;" d="M576 137L577 138L576 137z"/>
<path style="fill:#858077; stroke:none;" d="M610 137L611 138L610 137z"/>
<path style="fill:#9da8b6; stroke:none;" d="M643 137L644 138L643 137M677 137L678 138L677 137z"/>
<path style="fill:#858077; stroke:none;" d="M712 137L713 138L712 137M208.333 138.667L208.667 139.333L208.333 138.667M230 138L231 139L230 138z"/>
<path style="fill:#9da8b6; stroke:none;" d="M531 138L532 139L531 138M540 138L541 139L540 138M566 138L567 139L566 138z"/>
<path style="fill:#858077; stroke:none;" d="M601 138L602 139L601 138M652 138L653 139L652 138M687 138L688 139L687 138z"/>
<path style="fill:#9da8b6; stroke:none;" d="M713 138L714 139L713 138M722 138L723 139L722 138z"/>
<path style="fill:#858077; stroke:none;" d="M530 139L531 140L530 139M575 139L576 140L575 139z"/>
<path style="fill:#9da8b6; stroke:none;" d="M611 139L612 140L611 139M642 139L643 140L642 139M651 139L652 140L651 139M678 139L679 140L678 139z"/>
<path style="fill:#858077; stroke:none;" d="M723 139L724 140L723 139M397 140L398 141L397 140z"/>
<path style="fill:#9da8b6; stroke:none;" d="M539 140L540 141L539 140M565 140L566 141L565 140M574 140L575 141L574 140z"/>
<path style="fill:#858077; stroke:none;" d="M602 140L603 141L602 140M651 140L652 141L651 140z"/>
<path style="fill:#9da8b6; stroke:none;" d="M688 140L689 141L688 140M714 140L715 141L714 140M723 140L724 141L723 140z"/>
<path style="fill:#858077; stroke:none;" d="M191 141L192 142L191 141M214 141L215 142L214 141M229.333 141.667L229.667 142.333L229.333 141.667M529 141L530 142L529 141M574 141L575 142L574 141z"/>
<path style="fill:#9da8b6; stroke:none;" d="M603 141L604 142L603 141M612 141L613 142L612 141M641 141L642 142L641 141M650 141L651 142L650 141z"/>
<path style="fill:#858077; stroke:none;" d="M679 141L680 142L679 141M724 141L725 142L724 141M209 142L210 143L209 142M538 142L539 143L538 142z"/>
<path style="fill:#9da8b6; stroke:none;" d="M564 142L565 143L564 142M573 142L574 143L573 142z"/>
<path style="fill:#858077; stroke:none;" d="M603 142L604 143L603 142M640 142L641 143L640 142z"/>
<path style="fill:#9da8b6; stroke:none;" d="M689 142L690 143L689 142M715 142L716 143L715 142M528 143L529 144L528 143z"/>
<path style="fill:#858077; stroke:none;" d="M573 143L574 144L573 143z"/>
<path style="fill:#9da8b6; stroke:none;" d="M604 143L605 144L604 143M613 143L614 144L613 143M640 143L641 144L640 143M649 143L650 144L649 143z"/>
<path style="fill:#858077; stroke:none;" d="M680 143L681 144L680 143M725 143L726 144L725 143M192.333 144.667L192.667 145.333L192.333 144.667M213.333 144.667L213.667 145.333L213.333 144.667M537 144L538 145L537 144z"/>
<path style="fill:#9da8b6; stroke:none;" d="M563 144L564 145L563 144M572 144L573 145L572 144z"/>
<path style="fill:#858077; stroke:none;" d="M614 144L615 145L614 144M639 144L640 145L639 144z"/>
<path style="fill:#9da8b6; stroke:none;" d="M681 144L682 145L681 144M690 144L691 145L690 144z"/>
<path style="fill:#858077; stroke:none;" d="M716 144L717 145L716 144M210.333 145.667L210.667 146.333L210.333 145.667M228 145L229 146L228 145M392 145L393 146L392 145z"/>
<path style="fill:#9da8b6; stroke:none;" d="M527 145L528 146L527 145M536 145L537 146L536 145z"/>
<path style="fill:#858077; stroke:none;" d="M562 145L563 146L562 145z"/>
<path style="fill:#9da8b6; stroke:none;" d="M605 145L606 146L605 145M614 145L615 146L614 145M648 145L649 146L648 145z"/>
<path style="fill:#858077; stroke:none;" d="M681 145L682 146L681 145z"/>
<path style="fill:#9da8b6; stroke:none;" d="M726 145L727 146L726 145z"/>
<path style="fill:#858077; stroke:none;" d="M391 146L392 147L391 146M536 146L537 147L536 146z"/>
<path style="fill:#9da8b6; stroke:none;" d="M562 146L563 147L562 146M571 146L572 147L571 146z"/>
<path style="fill:#858077; stroke:none;" d="M615 146L616 147L615 146M638 146L639 147L638 146z"/>
<path style="fill:#9da8b6; stroke:none;" d="M682 146L683 147L682 146M691 146L692 147L691 146z"/>
<path style="fill:#858077; stroke:none;" d="M717 146L718 147L717 146M389 147L390 148L389 147z"/>
<path style="fill:#9da8b6; stroke:none;" d="M526 147L527 148L526 147M535 147L536 148L535 147z"/>
<path style="fill:#858077; stroke:none;" d="M561 147L562 148L561 147z"/>
<path style="fill:#9da8b6; stroke:none;" d="M606 147L607 148L606 147M647 147L648 148L647 147z"/>
<path style="fill:#858077; stroke:none;" d="M692 147L693 148L692 147z"/>
<path style="fill:#9da8b6; stroke:none;" d="M718 147L719 148L718 147M727 147L728 148L727 147z"/>
<path style="fill:#858077; stroke:none;" d="M193 148L194 149L193 148M212 148L213 149L212 148M227 148L228 149L227 148M525 148L526 149L525 148z"/>
<path style="fill:#9da8b6; stroke:none;" d="M570 148L571 149L570 148z"/>
<path style="fill:#858077; stroke:none;" d="M616 148L617 149L616 148z"/>
<path style="fill:#9da8b6; stroke:none;" d="M637 148L638 149L637 148M683 148L684 149L683 148M692 148L693 149L692 148z"/>
<path style="fill:#858077; stroke:none;" d="M718 148L719 149L718 148M211 149L212 150L211 149M388.333 149.667L388.667 150.333L388.333 149.667z"/>
<path style="fill:#9da8b6; stroke:none;" d="M525 149L526 150L525 149M534 149L535 150L534 149z"/>
<path style="fill:#858077; stroke:none;" d="M560 149L561 150L560 149z"/>
<path style="fill:#9da8b6; stroke:none;" d="M607 149L608 150L607 149z"/>
<path style="fill:#858077; stroke:none;" d="M646 149L647 150L646 149M693 149L694 150L693 149z"/>
<path style="fill:#9da8b6; stroke:none;" d="M719 149L720 150L719 149M728 149L729 150L728 149z"/>
<path style="fill:#858077; stroke:none;" d="M290 150L290 151L319 151L290 150M524 150L525 151L524 150M569 150L570 151L569 150z"/>
<path style="fill:#9da8b6; stroke:none;" d="M617 150L618 151L617 150M636 150L637 151L636 150M684 150L685 151L684 150z"/>
<path style="fill:#858077; stroke:none;" d="M729 150L730 151L729 150M194.333 151.667L194.667 152.333L194.333 151.667M226.333 151.667L226.667 152.333L226.333 151.667z"/>
<path style="fill:#9da8b6; stroke:none;" d="M533 151L534 152L533 151M559 151L560 152L559 151z"/>
<path style="fill:#858077; stroke:none;" d="M608 151L609 152L608 151M645 151L646 152L645 151M694 151L695 152L694 151z"/>
<path style="fill:#9da8b6; stroke:none;" d="M720 151L721 152L720 151M729 151L730 152L729 151z"/>
<path style="fill:#858077; stroke:none;" d="M357 152L357 153L370 153L357 152M389 152L390 153L389 152M523 152L524 153L523 152M568 152L569 153L568 152z"/>
<path style="fill:#9da8b6; stroke:none;" d="M618 152L619 153L618 152M635 152L636 153L635 152M644 152L645 153L644 152z"/>
<path style="fill:#858077; stroke:none;" d="M685 152L686 153L685 152M730 152L731 153L730 152z"/>
<path style="fill:#9da8b6; stroke:none;" d="M532 153L533 154L532 153M558 153L559 154L558 153M567 153L568 154L567 153z"/>
<path style="fill:#858077; stroke:none;" d="M609 153L610 154L609 153M644 153L645 154L644 153z"/>
<path style="fill:#9da8b6; stroke:none;" d="M695 153L696 154L695 153M721 153L722 154L721 153z"/>
<path style="fill:#858077; stroke:none;" d="M370 154L371 155L370 154z"/>
<path style="fill:#9da8b6; stroke:none;" d="M522 154L523 155L522 154z"/>
<path style="fill:#858077; stroke:none;" d="M567 154L568 155L567 154z"/>
<path style="fill:#9da8b6; stroke:none;" d="M610 154L611 155L610 154M619 154L620 155L619 154M634 154L635 155L634 154M643 154L644 155L643 154z"/>
<path style="fill:#858077; stroke:none;" d="M686 154L687 155L686 154M731 154L732 155L731 154M195.333 155.667L195.667 156.333L195.333 155.667M225 155L226 156L225 155M390 155L391 156L390 155M531 155L532 156L531 155z"/>
<path style="fill:#9da8b6; stroke:none;" d="M557 155L558 156L557 155M566 155L567 156L566 155z"/>
<path style="fill:#858077; stroke:none;" d="M610 155L611 156L610 155M633 155L634 156L633 155z"/>
<path style="fill:#9da8b6; stroke:none;" d="M687 155L688 156L687 155M696 155L697 156L696 155M722 155L723 156L722 155z"/>
<path style="fill:#858077; stroke:none;" d="M413 156L413 162L414 162L413 156z"/>
<path style="fill:#9da8b6; stroke:none;" d="M521 156L522 157L521 156M530 156L531 157L530 156z"/>
<path style="fill:#858077; stroke:none;" d="M556 156L557 157L556 156z"/>
<path style="fill:#9da8b6; stroke:none;" d="M611 156L612 157L611 156M620 156L621 157L620 156M633 156L634 157L633 156M642 156L643 157L642 156z"/>
<path style="fill:#858077; stroke:none;" d="M687 156L688 157L687 156z"/>
<path style="fill:#9da8b6; stroke:none;" d="M732 156L733 157L732 156z"/>
<path style="fill:#858077; stroke:none;" d="M371 157L372 158L371 157M391 157L392 158L391 157M530 157L531 158L530 157z"/>
<path style="fill:#9da8b6; stroke:none;" d="M556 157L557 158L556 157M565 157L566 158L565 157z"/>
<path style="fill:#858077; stroke:none;" d="M621 157L622 158L621 157M632 157L633 158L632 157z"/>
<path style="fill:#9da8b6; stroke:none;" d="M688 157L689 158L688 157M697 157L698 158L697 157z"/>
<path style="fill:#858077; stroke:none;" d="M723 157L724 158L723 157M224.333 158.667L224.667 159.333L224.333 158.667z"/>
<path style="fill:#9da8b6; stroke:none;" d="M520 158L521 159L520 158M529 158L530 159L529 158z"/>
<path style="fill:#858077; stroke:none;" d="M555 158L556 159L555 158z"/>
<path style="fill:#9da8b6; stroke:none;" d="M612 158L613 159L612 158M621 158L622 159L621 158M641 158L642 159L641 158z"/>
<path style="fill:#858077; stroke:none;" d="M698 158L699 159L698 158z"/>
<path style="fill:#9da8b6; stroke:none;" d="M733 158L734 159L733 158z"/>
<path style="fill:#858077; stroke:none;" d="M196 159L197 160L196 159M519 159L520 160L519 159M529 159L530 160L529 159z"/>
<path style="fill:#9da8b6; stroke:none;" d="M564 159L565 160L564 159z"/>
<path style="fill:#858077; stroke:none;" d="M622 159L623 160L622 159M631 159L632 160L631 159z"/>
<path style="fill:#9da8b6; stroke:none;" d="M689 159L690 160L689 159M698 159L699 160L698 159z"/>
<path style="fill:#858077; stroke:none;" d="M724 159L725 160L724 159M372 160L373 161L372 160M392 160L393 161L392 160z"/>
<path style="fill:#9da8b6; stroke:none;" d="M519 160L520 161L519 160M528 160L529 161L528 160z"/>
<path style="fill:#858077; stroke:none;" d="M554 160L555 161L554 160z"/>
<path style="fill:#9da8b6; stroke:none;" d="M613 160L614 161L613 160z"/>
<path style="fill:#858077; stroke:none;" d="M640 160L641 161L640 160M699 160L700 161L699 160z"/>
<path style="fill:#9da8b6; stroke:none;" d="M725 160L726 161L725 160M734 160L735 161L734 160z"/>
<path style="fill:#858077; stroke:none;" d="M518 161L519 162L518 161M563 161L564 162L563 161M623 161L624 162L623 161z"/>
<path style="fill:#9da8b6; stroke:none;" d="M630 161L631 162L630 161M690 161L691 162L690 161z"/>
<path style="fill:#858077; stroke:none;" d="M725 161L726 162L725 161M197.333 162.667L197.667 163.333L197.333 162.667M223 162L224 163L223 162M373.333 162.667L373.667 163.333L373.333 162.667M393 162L394 163L393 162M434.333 162.667L434.667 163.333L434.333 162.667z"/>
<path style="fill:#9da8b6; stroke:none;" d="M518 162L519 163L518 162M527 162L528 163L527 162M553 162L554 163L553 162z"/>
<path style="fill:#858077; stroke:none;" d="M614 162L615 163L614 162M639 162L640 163L639 162M700 162L701 163L700 162z"/>
<path style="fill:#9da8b6; stroke:none;" d="M726 162L727 163L726 162M735 162L736 163L735 162z"/>
<path style="fill:#858077; stroke:none;" d="M459 163L460 164L459 163M517 163L518 164L517 163M562 163L563 164L562 163z"/>
<path style="fill:#9da8b6; stroke:none;" d="M624 163L625 164L624 163M629 163L630 164L629 163M638 163L639 164L638 163M691 163L692 164L691 163z"/>
<path style="fill:#858077; stroke:none;" d="M736 163L737 164L736 163z"/>
<path style="fill:#9da8b6; stroke:none;" d="M526 164L527 165L526 164M552 164L553 165L552 164M561 164L562 165L561 164z"/>
<path style="fill:#858077; stroke:none;" d="M615 164L616 165L615 164M638 164L639 165L638 164z"/>
<path style="fill:#9da8b6; stroke:none;" d="M701 164L702 165L701 164M727 164L728 165L727 164M736 164L737 165L736 164z"/>
<path style="fill:#858077; stroke:none;" d="M222 165L223 166L222 165M374 165L375 166L374 165M394 165L395 166L394 165M435 165L436 166L435 165M458 165L459 166L458 165z"/>
<path style="fill:#9da8b6; stroke:none;" d="M516 165L517 166L516 165z"/>
<path style="fill:#858077; stroke:none;" d="M561 165L562 166L561 165z"/>
<path style="fill:#9da8b6; stroke:none;" d="M616 165L617 166L616 165M625 165L626 166L625 165M628 165L629 166L628 165M637 165L638 166L637 165z"/>
<path style="fill:#858077; stroke:none;" d="M692 165L693 166L692 165M737 165L738 166L737 165M198 166L199 167L198 166M414.333 166.667L414.667 167.333L414.333 166.667M436 166L437 167L436 166M475.333 166.667L475.667 167.333L475.333 166.667M525 166L526 167L525 166z"/>
<path style="fill:#9da8b6; stroke:none;" d="M551 166L552 167L551 166M560 166L561 167L560 166z"/>
<path style="fill:#858077; stroke:none;" d="M616 166L617 167L616 166M627 166L628 167L627 166z"/>
<path style="fill:#9da8b6; stroke:none;" d="M693 166L694 167L693 166M702 166L703 167L702 166M728 166L729 167L728 166z"/>
<path style="fill:#858077; stroke:none;" d="M395 167L396 168L395 167M437 167L438 168L437 167z"/>
<path style="fill:#9da8b6; stroke:none;" d="M515 167L516 168L515 167z"/>
<path style="fill:#858077; stroke:none;" d="M550 167L551 168L550 167z"/>
<path style="fill:#9da8b6; stroke:none;" d="M617 167L618 168L617 167M626.667 167.333L627.333 167.667L626.667 167.333M636 167L637 168L636 167z"/>
<path style="fill:#858077; stroke:none;" d="M693 167L694 168L693 167M738 167L739 168L738 167M221.333 168.667L221.667 169.333L221.333 168.667M375 168L376 169L375 168M455 168L456 169L455 168M524 168L525 169L524 168z"/>
<path style="fill:#9da8b6; stroke:none;" d="M550 168L551 169L550 168M559 168L560 169L559 168M694 168L695 169L694 168M703 168L704 169L703 168z"/>
<path style="fill:#858077; stroke:none;" d="M729 168L730 169L729 168M199.333 169.667L199.667 170.333L199.333 169.667M440.667 169.333L441.333 169.667L440.667 169.333M452.667 169.333L453.333 169.667L452.667 169.333z"/>
<path style="fill:#9da8b6; stroke:none;" d="M514 169L515 170L514 169M523 169L524 170L523 169z"/>
<path style="fill:#858077; stroke:none;" d="M549 169L550 170L549 169z"/>
<path style="fill:#9da8b6; stroke:none;" d="M618 169L619 170L618 169M635 169L636 170L635 169z"/>
<path style="fill:#858077; stroke:none;" d="M694 169L695 170L694 169z"/>
<path style="fill:#9da8b6; stroke:none;" d="M739 169L740 170L739 169z"/>
<path style="fill:#858077; stroke:none;" d="M376.333 170.667L376.667 171.333L376.333 170.667M396 170L397 171L396 170M415 170L416 171L415 170M445 170L445 171L449 171L445 170M474.333 170.667L474.667 171.333L474.333 170.667M523 170L524 171L523 170z"/>
<path style="fill:#9da8b6; stroke:none;" d="M558 170L559 171L558 170M695 170L696 171L695 170M704 170L705 171L704 170z"/>
<path style="fill:#858077; stroke:none;" d="M730 170L731 171L730 170M220 172L221 173L220 172M397 172L398 173L397 172M416 172L417 173L416 172M200 173L201 174L200 173M377 173L378 174L377 173M473 173L474 174L473 173M417 174L418 175L417 174M219.333 175.667L219.667 176.333L219.333 175.667M398 175L399 176L398 175M201.333 176.667L201.667 177.333L201.333 176.667M378 176L379 177L378 176M471 176L472 177L471 176M399 177L400 178L399 177M470 177L471 178L470 177M420 178L421 179L420 178M469 178L470 179L469 178M218 179L219 180L218 179M379 179L380 180L379 179M421 179L422 180L421 179M468 179L469 180L468 179M202 180L203 181L202 180M400 180L401 181L400 180M467 180L468 181L467 180M380 181L381 182L380 181M424 181L425 182L424 181M465 181L466 182L465 181M217 182L218 183L217 182M401 182L402 183L401 182M425 182L426 183L425 182M464 182L465 183L464 182z"/>
<path style="fill:#9da8b6; stroke:none;" d="M485 182L485 183L769 183L743 182L685 182L485 182z"/>
<path style="fill:#858077; stroke:none;" d="M203.333 183.667L203.667 184.333L203.333 183.667M427 183L428 184L427 183M461.667 183.333L462.333 183.667L461.667 183.333M381 184L382 185L381 184M430 184L431 185L430 184M459 184L460 185L459 184M433.667 185.333L434.333 185.667L433.667 185.333M455.667 185.333L456.333 185.667L455.667 185.333M438 186L438 187L451 187L438 186M261 219L261 220L267 220L261 219M320 219L320 220L326 220L320 219M377 219L377 220L383 220L377 219M748 219L748 220L755 220L748 219M254 220L255 221L254 220z"/>
<path style="fill:#9da8b6; stroke:none;" d="M255.667 220.333L256.333 220.667L255.667 220.333z"/>
<path style="fill:#f8f9f9; stroke:none;" d="M279 287L279 279C268.563 281.7 255.965 282.902 247.093 275.471C233.109 263.757 237.167 237.943 253 230C261.298 225.837 269.339 227.9 278 229C277.797 211.998 247.893 221.322 240.093 228.329C225.427 241.504 225.93 272.546 243.004 283.441C254.288 290.641 266.622 288.573 279 287z"/>
<path style="fill:#9da8b6; stroke:none;" d="M272 220L273 221L272 220z"/>
<path style="fill:#858077; stroke:none;" d="M273 220L274 221L273 220M313 220L314 221L313 220z"/>
<path style="fill:#9da8b6; stroke:none;" d="M314.667 220.333L315.333 220.667L314.667 220.333z"/>
<path style="fill:#f8f9f9; stroke:none;" d="M338 279C327.563 281.7 314.965 282.902 306.093 275.471C292.109 263.757 296.167 237.943 312 230C320.298 225.837 328.339 227.9 337 229C336.845 215.972 317.728 219.021 309 222.465C294.206 228.3 288.826 242.053 289.004 257C289.18 271.789 297.231 283.984 312 287.497C321.273 289.702 337.848 291.793 338 279z"/>
<path style="fill:#9da8b6; stroke:none;" d="M331 220L332 221L331 220z"/>
<path style="fill:#858077; stroke:none;" d="M332 220L333 221L332 220M371 220L372 221L371 220z"/>
<path style="fill:#9da8b6; stroke:none;" d="M372.667 220.333L373.333 220.667L372.667 220.333z"/>
<path style="fill:#f8f9f9; stroke:none;" d="M374 220.465C334.8 227.532 343.782 295.787 385 288.384C425.506 281.11 416.677 212.77 374 220.465z"/>
<path style="fill:#9da8b6; stroke:none;" d="M387 220L388 221L387 220z"/>
<path style="fill:#858077; stroke:none;" d="M388 220L389 221L388 220M741 220L742 221L741 220z"/>
<path style="fill:#9da8b6; stroke:none;" d="M742.667 220.333L743.333 220.667L742.667 220.333z"/>
<path style="fill:#f8f9f9; stroke:none;" d="M769 286L769 253C760.052 253 745.142 249.037 745 261L760 261C760 265.754 761.698 274.597 758.972 278.682C754.595 285.241 737.819 279.877 733.015 276.362C715.135 263.279 723.096 232.878 744 228.289C751.724 226.594 758.321 228.393 766 229C765.788 211.217 732.888 221.964 725.04 229.185C710.549 242.52 710.162 272.701 728.001 283.521C740.76 291.26 755.276 288.831 769 286z"/>
<path style="fill:#9da8b6; stroke:none;" d="M759.667 220.333L760.333 220.667L759.667 220.333z"/>
<path style="fill:#858077; stroke:none;" d="M761 220L762 221L761 220M188 221L189 222L188 221z"/>
<path style="fill:#f8f9f9; stroke:none;" d="M162 288C173.165 287.991 176.239 278.225 178 268C184.886 268 199.758 265.176 205.582 269.028C214.777 275.111 208.518 287.949 223 288C219.977 270.442 209.142 251.418 202.15 235C200.234 230.501 198.044 219.629 191.21 221.337C186.33 222.557 184.046 232.887 182.4 237C175.697 253.743 166.756 270.61 162 288z"/>
<path style="fill:#9da8b6; stroke:none;" d="M196 221L197 222L196 221z"/>
<path style="fill:#858077; stroke:none;" d="M251 221L252 222L251 221z"/>
<path style="fill:#9da8b6; stroke:none;" d="M252 221L253 222L252 221M276 221L277 222L276 221z"/>
<path style="fill:#858077; stroke:none;" d="M277 221L278 222L277 221M310 221L311 222L310 221z"/>
<path style="fill:#9da8b6; stroke:none;" d="M311 221L312 222L311 221M335 221L336 222L335 221z"/>
<path style="fill:#858077; stroke:none;" d="M336 221L337 222L336 221M368 221L369 222L368 221z"/>
<path style="fill:#9da8b6; stroke:none;" d="M369 221L370 222L369 221M391 221L392 222L391 221z"/>
<path style="fill:#f8f9f9; stroke:none;" d="M425 221C425 237.736 420.384 262.931 428.905 277.985C437.518 293.203 466.561 292.684 474.442 277C481.779 262.4 477 237.067 477 221L469 221C469 234.932 473.485 258.326 467.427 271C461.659 283.068 443.336 284.919 436.367 272.985C429.125 260.584 434 235.132 434 221L425 221z"/>
<path style="fill:#9da8b6; stroke:none;" d="M477 221L477 266L478 266C478 253.258 481.91 232.701 477 221z"/>
<path style="fill:#858077; stroke:none;" d="M493 221L493 288L494 288L494 242L493 221z"/>
<path style="fill:#f8f9f9; stroke:none;" d="M494 221L494 288L502 288L502 234L503 234C508.516 248.553 521.546 262.365 530.579 275C535.774 282.267 538.453 287.966 548 288L548 221L540 221L540 275C531.151 261.882 521.983 249.007 512.975 236C507.574 228.201 504.222 221.036 494 221z"/>
<path style="fill:#9da8b6; stroke:none;" d="M502 221L503 222L502 221M539 221L539 264L540 264C540 251.781 543.711 232.225 539 221z"/>
<path style="fill:#858077; stroke:none;" d="M548 221L548 288L549 288L549 242L548 221z"/>
<path style="fill:#f8f9f9; stroke:none;" d="M558 221L558 229L580 229L580 274C580 277.993 578.192 287.333 584.039 287.793C590.871 288.331 589 278.263 589 274L589 229L611 229L611 221L558 221M621 221L621 288L629 288L629 221L621 221z"/>
<path style="fill:#9da8b6; stroke:none;" d="M629 221L629 288L630 288L630 242L629 221z"/>
<path style="fill:#f8f9f9; stroke:none;" d="M646 221L646 288L654 288L654 234L655 234C661.882 248.548 673.507 261.926 682.86 275C687.984 282.164 690.585 287.967 700 288L700 221L692 221L692 274C682.597 261.767 674.133 248.646 665.28 236C659.567 227.839 656.602 221.008 646 221z"/>
<path style="fill:#858077; stroke:none;" d="M691 221L691 261L692 261C692 249.566 695.411 231.512 691 221z"/>
<path style="fill:#9da8b6; stroke:none;" d="M700 221L700 288L701 288L701 242L700 221M738 221L739 222L738 221M764 221L765 222L764 221z"/>
<path style="fill:#858077; stroke:none;" d="M765 221L766 222L765 221z"/>
<path style="fill:#9da8b6; stroke:none;" d="M188 222L189 223L188 222M249 222L250 223L249 222M278 222L277 230L278 222M308 222L309 223L308 222M337 222L336 230L337 222M366 222L367 223L366 222M393 222L394 223L393 222z"/>
<path style="fill:#858077; stroke:none;" d="M503 222L504 223L503 222z"/>
<path style="fill:#9da8b6; stroke:none;" d="M655 222L656 223L655 222M735 222L736 223L735 222M766 222L765 230L766 222M197 223L198 224L197 223M247 223L248 224L247 223M306 223L307 224L306 223M364 223L365 224L364 223M395 223L396 224L395 223z"/>
<path style="fill:#858077; stroke:none;" d="M656 223L657 224L656 223z"/>
<path style="fill:#9da8b6; stroke:none;" d="M733 223L734 224L733 223M187 224L188 225L187 224M245 224L246 225L245 224M304 224L305 225L304 224z"/>
<path style="fill:#858077; stroke:none;" d="M362 224L363 225L362 224z"/>
<path style="fill:#9da8b6; stroke:none;" d="M397 224L398 225L397 224M504 224L505 225L504 224M731 224L732 225L731 224z"/>
<path style="fill:#858077; stroke:none;" d="M198 225L199 226L198 225M243 225L244 226L243 225M302 225L303 226L302 225z"/>
<path style="fill:#9da8b6; stroke:none;" d="M361 225L362 226L361 225z"/>
<path style="fill:#858077; stroke:none;" d="M505 225L506 226L505 225z"/>
<path style="fill:#9da8b6; stroke:none;" d="M657 225L658 226L657 225z"/>
<path style="fill:#858077; stroke:none;" d="M729 225L730 226L729 225M186 226L187 227L186 226z"/>
<path style="fill:#9da8b6; stroke:none;" d="M198 226L199 227L198 226M242 226L243 227L242 226M301 226L302 227L301 226z"/>
<path style="fill:#858077; stroke:none;" d="M400 226L401 227L400 226z"/>
<path style="fill:#9da8b6; stroke:none;" d="M658 226L659 227L658 226M728 226L729 227L728 226M186 227L187 228L186 227M261 227L261 228L269 228L261 227M320 227L320 228L328 228L320 227M377 227L377 228L383 228L377 227M401 227L402 228L401 227z"/>
<path style="fill:#858077; stroke:none;" d="M726 227L727 228L726 227z"/>
<path style="fill:#9da8b6; stroke:none;" d="M748 227L748 228L756 228L748 227M199 228L200 229L199 228M256 228L257 229L256 228z"/>
<path style="fill:#858077; stroke:none;" d="M257 228L258 229L257 228M272 228L273 229L272 228z"/>
<path style="fill:#9da8b6; stroke:none;" d="M273.667 228.333L274.333 228.667L273.667 228.333M315 228L316 229L315 228z"/>
<path style="fill:#858077; stroke:none;" d="M316 228L317 229L316 228M331 228L332 229L331 228z"/>
<path style="fill:#9da8b6; stroke:none;" d="M332.667 228.333L333.333 228.667L332.667 228.333M372.667 228.333L373.333 228.667L372.667 228.333z"/>
<path style="fill:#435773; stroke:none;" d="M374 228.533C347.247 234.993 355.093 287.221 385 280.319C413.261 273.797 405.365 220.96 374 228.533z"/>
<path style="fill:#9da8b6; stroke:none;" d="M386.667 228.333L387.333 228.667L386.667 228.333M402 228L403 229L402 228M507 228L508 229L507 228M725 228L726 229L725 228M742.667 228.333L743.333 228.667L742.667 228.333z"/>
<path style="fill:#858077; stroke:none;" d="M744 228L745 229L744 228M759.667 228.333L760.333 228.667L759.667 228.333z"/>
<path style="fill:#9da8b6; stroke:none;" d="M761 228L762 229L761 228M185 229L186 230L185 229M253 229L254 230L253 229z"/>
<path style="fill:#858077; stroke:none;" d="M254 229L255 230L254 229M276 229L277 230L276 229z"/>
<path style="fill:#9da8b6; stroke:none;" d="M312 229L313 230L312 229z"/>
<path style="fill:#858077; stroke:none;" d="M313 229L314 230L313 229M335 229L336 230L335 229z"/>
<path style="fill:#9da8b6; stroke:none;" d="M370 229L371 230L370 229M389 229L390 230L389 229z"/>
<path style="fill:#858077; stroke:none;" d="M403 229L404 230L403 229M508 229L509 230L508 229z"/>
<path style="fill:#9da8b6; stroke:none;" d="M660 229L661 230L660 229M724 229L725 230L724 229M739 229L740 230L739 229z"/>
<path style="fill:#858077; stroke:none;" d="M740 229L741 230L740 229M764 229L765 230L764 229M200 230L201 231L200 230z"/>
<path style="fill:#9da8b6; stroke:none;" d="M251 230L252 231L251 230M310 230L311 231L310 230M368 230L369 231L368 230M391 230L392 231L391 230z"/>
<path style="fill:#858077; stroke:none;" d="M404 230L405 231L404 230M661 230L662 231L661 230z"/>
<path style="fill:#9da8b6; stroke:none;" d="M723 230L724 231L723 230M737 230L738 231L737 230M184 231L185 232L184 231M200 231L201 232L200 231M355 231L356 232L355 231z"/>
<path style="fill:#858077; stroke:none;" d="M367 231L368 232L367 231M392 231L393 232L392 231z"/>
<path style="fill:#9da8b6; stroke:none;" d="M509 231L510 232L509 231z"/>
<path style="fill:#858077; stroke:none;" d="M722 231L723 232L722 231z"/>
<path style="fill:#9da8b6; stroke:none;" d="M735 231L736 232L735 231M192 232L193 233L192 232M236 232L237 233L236 232M248 232L249 233L248 232M295 232L296 233L295 232M307 232L308 233L307 232z"/>
<path style="fill:#858077; stroke:none;" d="M354 232L355 233L354 232M366 232L367 233L366 232z"/>
<path style="fill:#9da8b6; stroke:none;" d="M405 232L406 233L405 232z"/>
<path style="fill:#858077; stroke:none;" d="M510 232L511 233L510 232z"/>
<path style="fill:#9da8b6; stroke:none;" d="M662 232L663 233L662 232z"/>
<path style="fill:#858077; stroke:none;" d="M721 232L722 233L721 232M734 232L735 233L734 232M192 233L193 234L192 233z"/>
<path style="fill:#9da8b6; stroke:none;" d="M201 233L202 234L201 233z"/>
<path style="fill:#858077; stroke:none;" d="M235 233L236 234L235 233z"/>
<path style="fill:#9da8b6; stroke:none;" d="M247 233L248 234L247 233z"/>
<path style="fill:#858077; stroke:none;" d="M294 233L295 234L294 233M306 233L307 234L306 233M406 233L407 234L406 233M663 233L664 234L663 233z"/>
<path style="fill:#9da8b6; stroke:none;" d="M183 234L184 235L183 234z"/>
<path style="fill:#435773; stroke:none;" d="M192 234L183 260L203 260L192 234z"/>
<path style="fill:#9da8b6; stroke:none;" d="M193 234L194 235L193 234z"/>
<path style="fill:#858077; stroke:none;" d="M246 234L247 235L246 234M305 234L306 235L305 234z"/>
<path style="fill:#9da8b6; stroke:none;" d="M353 234L354 235L353 234M502 234L503 235L502 234z"/>
<path style="fill:#435773; stroke:none;" d="M654 234L655 235L654 234z"/>
<path style="fill:#9da8b6; stroke:none;" d="M720 234L721 235L720 234M731 234L732 235L731 234M191 235L192 236L191 235M202 235L203 236L202 235M234 235L235 236L234 235z"/>
<path style="fill:#858077; stroke:none;" d="M245 235L246 236L245 235z"/>
<path style="fill:#9da8b6; stroke:none;" d="M293 235L294 236L293 235z"/>
<path style="fill:#858077; stroke:none;" d="M304 235L305 236L304 235M363 235L364 236L363 235z"/>
<path style="fill:#9da8b6; stroke:none;" d="M407 235L408 236L407 235M512 235L513 236L512 235z"/>
<path style="fill:#858077; stroke:none;" d="M654 235L654 241L655 241L654 235z"/>
<path style="fill:#9da8b6; stroke:none;" d="M655 235L656 236L655 235z"/>
<path style="fill:#858077; stroke:none;" d="M719 235L720 236L719 235z"/>
<path style="fill:#9da8b6; stroke:none;" d="M730 235L731 236L730 235M182 236L183 237L182 236M194.333 236.667L194.667 237.333L194.333 236.667M244 236L245 237L244 236M303 236L304 237L303 236M352 236L353 237L352 236M362 236L363 237L362 236z"/>
<path style="fill:#858077; stroke:none;" d="M397 236L398 237L397 236M513 236L514 237L513 236z"/>
<path style="fill:#9da8b6; stroke:none;" d="M665 236L666 237L665 236M233 237L234 238L233 237M243 237L244 238L243 237M292 237L293 238L292 237M302 237L303 238L302 237M398 237L399 238L398 237z"/>
<path style="fill:#858077; stroke:none;" d="M408 237L409 238L408 237z"/>
<path style="fill:#9da8b6; stroke:none;" d="M504 237L505 238L504 237z"/>
<path style="fill:#858077; stroke:none;" d="M656 237L657 238L656 237M666 237L667 238L666 237z"/>
<path style="fill:#9da8b6; stroke:none;" d="M718 237L719 238L718 237z"/>
<path style="fill:#858077; stroke:none;" d="M181 238L182 239L181 238z"/>
<path style="fill:#9da8b6; stroke:none;" d="M190 238L191 239L190 238M203 238L204 239L203 238M351 238L352 239L351 238z"/>
<path style="fill:#858077; stroke:none;" d="M361 238L362 239L361 238z"/>
<path style="fill:#9da8b6; stroke:none;" d="M408 238L409 239L408 238M514 238L515 239L514 238M657 238L658 239L657 238z"/>
<path style="fill:#858077; stroke:none;" d="M728 238L729 239L728 238z"/>
<path style="fill:#9da8b6; stroke:none;" d="M181 239L182 240L181 239M195 239L196 240L195 239M232 239L233 240L232 239M242 239L243 240L242 239M291 239L292 240L291 239M301 239L302 240L301 239M399 239L400 240L399 239z"/>
<path style="fill:#858077; stroke:none;" d="M505 239L506 240L505 239M515 239L516 240L515 239z"/>
<path style="fill:#9da8b6; stroke:none;" d="M667 239L668 240L667 239M717 239L718 240L717 239M727 239L728 240L727 239M189 240L190 241L189 240z"/>
<path style="fill:#858077; stroke:none;" d="M195 240L196 241L195 240z"/>
<path style="fill:#9da8b6; stroke:none;" d="M204 240L205 241L204 240z"/>
<path style="fill:#858077; stroke:none;" d="M350 240L351 241L350 240M360 240L361 241L360 240z"/>
<path style="fill:#9da8b6; stroke:none;" d="M409 240L410 241L409 240M506 240L507 241L506 240z"/>
<path style="fill:#858077; stroke:none;" d="M658 240L659 241L658 240M668 240L669 241L668 240z"/>
<path style="fill:#9da8b6; stroke:none;" d="M180 241L181 242L180 241z"/>
<path style="fill:#858077; stroke:none;" d="M189 241L190 242L189 241M231 241L232 242L231 241z"/>
<path style="fill:#9da8b6; stroke:none;" d="M241 241L242 242L241 241z"/>
<path style="fill:#858077; stroke:none;" d="M290 241L291 242L290 241z"/>
<path style="fill:#9da8b6; stroke:none;" d="M300 241L301 242L300 241M350 241L351 242L350 241M400.333 241.667L400.667 242.333L400.333 241.667M516 241L517 242L516 241M654 241L654 288L655 288C655 274.735 659.11 253.176 654 241M659 241L660 242L659 241z"/>
<path style="fill:#858077; stroke:none;" d="M716 241L717 242L716 241z"/>
<path style="fill:#9da8b6; stroke:none;" d="M726 241L727 242L726 241M196 242L197 243L196 242z"/>
<path style="fill:#858077; stroke:none;" d="M205 242L206 243L205 242z"/>
<path style="fill:#9da8b6; stroke:none;" d="M231 242L232 243L231 242M290 242L291 243L290 242M359 242L360 243L359 242z"/>
<path style="fill:#858077; stroke:none;" d="M502 242L502 288L503 288C503 274.997 507.01 253.939 502 242M507 242L508 243L507 242z"/>
<path style="fill:#9da8b6; stroke:none;" d="M517 242L518 243L517 242M669 242L670 243L669 242M716 242L717 243L716 242z"/>
<path style="fill:#858077; stroke:none;" d="M179 243L180 244L179 243z"/>
<path style="fill:#9da8b6; stroke:none;" d="M188 243L189 244L188 243z"/>
<path style="fill:#858077; stroke:none;" d="M196 243L197 244L196 243z"/>
<path style="fill:#9da8b6; stroke:none;" d="M205 243L206 244L205 243M240 243L241 244L240 243M299 243L300 244L299 243z"/>
<path style="fill:#858077; stroke:none;" d="M359 243L360 244L359 243M410 243L411 244L410 243z"/>
<path style="fill:#9da8b6; stroke:none;" d="M508 243L509 244L508 243z"/>
<path style="fill:#858077; stroke:none;" d="M660 243L661 244L660 243z"/>
<path style="fill:#9da8b6; stroke:none;" d="M670 243L671 244L670 243M725 243L726 244L725 243M179 244L180 245L179 244z"/>
<path style="fill:#858077; stroke:none;" d="M240 244L241 245L240 244M299 244L300 245L299 244M349 244L350 245L349 244z"/>
<path style="fill:#9da8b6; stroke:none;" d="M401.333 244.667L401.667 245.333L401.333 244.667M410 244L411 245L410 244M661 244L662 245L661 244z"/>
<path style="fill:#858077; stroke:none;" d="M715 244L716 245L715 244z"/>
<path style="fill:#9da8b6; stroke:none;" d="M197 245L198 246L197 245M206 245L207 246L206 245z"/>
<path style="fill:#858077; stroke:none;" d="M230 245L231 246L230 245M289 245L290 246L289 245z"/>
<path style="fill:#9da8b6; stroke:none;" d="M349 245L350 246L349 245M358.333 245.667L358.667 246.333L358.333 245.667M519 245L520 246L519 245M715.333 245.667L715.667 246.333L715.333 245.667M724.333 245.667L724.667 246.333L724.333 245.667M178 246L179 247L178 246M187 246L188 247L187 246M230.333 246.667L230.667 247.333L230.333 246.667M239.333 246.667L239.667 247.333L239.333 246.667M289 246L290 247L289 246M298.333 246.667L298.667 247.333L298.333 246.667z"/>
<path style="fill:#858077; stroke:none;" d="M401 246L402 247L401 246z"/>
<path style="fill:#9da8b6; stroke:none;" d="M510 246L511 247L510 246z"/>
<path style="fill:#858077; stroke:none;" d="M520 246L521 247L520 246z"/>
<path style="fill:#9da8b6; stroke:none;" d="M672 246L673 247L672 246M198 247L199 248L198 247z"/>
<path style="fill:#858077; stroke:none;" d="M207 247L208 248L207 247M358 247L359 248L358 247z"/>
<path style="fill:#9da8b6; stroke:none;" d="M511 247L512 248L511 247M663 247L664 248L663 247z"/>
<path style="fill:#858077; stroke:none;" d="M673 247L674 248L673 247M724 247L725 248L724 247M177 248L178 249L177 248z"/>
<path style="fill:#9da8b6; stroke:none;" d="M186 248L187 249L186 248z"/>
<path style="fill:#858077; stroke:none;" d="M198 248L199 249L198 248z"/>
<path style="fill:#9da8b6; stroke:none;" d="M207 248L208 249L207 248z"/>
<path style="fill:#858077; stroke:none;" d="M239 248L240 249L239 248M298 248L299 249L298 248M411.333 248.667L411.667 249.333L411.333 248.667z"/>
<path style="fill:#9da8b6; stroke:none;" d="M521 248L522 249L521 248M664 248L665 249L664 248M177 249L178 250L177 249z"/>
<path style="fill:#858077; stroke:none;" d="M186 249L187 250L186 249M348 249L348 259L349 259L348 249M512 249L513 250L512 249M522 249L523 250L522 249z"/>
<path style="fill:#9da8b6; stroke:none;" d="M674 249L675 250L674 249z"/>
<path style="fill:#858077; stroke:none;" d="M714 249L715 250L714 249z"/>
<path style="fill:#9da8b6; stroke:none;" d="M199 250L200 251L199 250M208 250L209 251L208 250M411 250L411 259L412 259L411 250M513 250L514 251L513 250z"/>
<path style="fill:#858077; stroke:none;" d="M665 250L666 251L665 250M675 250L676 251L675 250z"/>
<path style="fill:#9da8b6; stroke:none;" d="M714 250L714 254L715 254L714 250M723 250L723 260L724 260L723 250M176 251L177 252L176 251M185 251L186 252L185 251z"/>
<path style="fill:#858077; stroke:none;" d="M229 251L229 259L230 259L229 251M288 251L288 260L289 260L288 251z"/>
<path style="fill:#9da8b6; stroke:none;" d="M402 251L402 258L403 258L402 251M666 251L667 252L666 251z"/>
<path style="fill:#858077; stroke:none;" d="M209 252L210 253L209 252M514 252L515 253L514 252z"/>
<path style="fill:#9da8b6; stroke:none;" d="M524 252L525 253L524 252M175 253L176 254L175 253M184 253L185 254L184 253M200 253L201 254L200 253M209 253L210 254L209 253M515 253L516 254L515 253z"/>
<path style="fill:#858077; stroke:none;" d="M525 253L526 254L525 253M667 253L668 254L667 253z"/>
<path style="fill:#9da8b6; stroke:none;" d="M677 253L678 254L677 253M745 253L746 254L745 253z"/>
<path style="fill:#858077; stroke:none;" d="M184 254L185 255L184 254z"/>
<path style="fill:#9da8b6; stroke:none;" d="M668 254L669 255L668 254z"/>
<path style="fill:#858077; stroke:none;" d="M678 254L679 255L678 254z"/>
<path style="fill:#9da8b6; stroke:none;" d="M201 255L202 256L201 255M210 255L211 256L210 255M526 255L527 256L526 255M174 256L175 257L174 256M183 256L184 257L183 256M517 256L518 257L517 256z"/>
<path style="fill:#858077; stroke:none;" d="M527 256L528 257L527 256z"/>
<path style="fill:#9da8b6; stroke:none;" d="M679 256L680 257L679 256M211 257L212 258L211 257M518 257L519 258L518 257M670 257L671 258L670 257z"/>
<path style="fill:#858077; stroke:none;" d="M680 257L681 258L680 257z"/>
<path style="fill:#9da8b6; stroke:none;" d="M714 257L714 261L715 261L714 257M173 258L174 259L173 258M182 258L183 259L182 258M202 258L203 259L202 258M528 258L529 259L528 258M671 258L672 259L671 258z"/>
<path style="fill:#858077; stroke:none;" d="M182 259L183 260L182 259M411.333 259.667L411.667 260.333L411.333 259.667M519 259L520 260L519 259z"/>
<path style="fill:#9da8b6; stroke:none;" d="M529 259L530 260L529 259M681 259L682 260L681 259z"/>
<path style="fill:#858077; stroke:none;" d="M172 260L173 261L172 260z"/>
<path style="fill:#9da8b6; stroke:none;" d="M212 260L213 261L212 260M520 260L521 261L520 260z"/>
<path style="fill:#858077; stroke:none;" d="M672 260L673 261L672 260z"/>
<path style="fill:#9da8b6; stroke:none;" d="M682 260L683 261L682 260M172 261L173 262L172 261z"/>
<path style="fill:#858077; stroke:none;" d="M239 261L240 262L239 261M298 261L299 262L298 261M358 261L359 262L358 261z"/>
<path style="fill:#9da8b6; stroke:none;" d="M673 261L674 262L673 261z"/>
<path style="fill:#858077; stroke:none;" d="M714.333 261.667L714.667 262.333L714.333 261.667z"/>
<path style="fill:#9da8b6; stroke:none;" d="M213 262L214 263L213 262M239.333 262.667L239.667 263.333L239.333 262.667M298.333 262.667L298.667 263.333L298.333 262.667M358.333 262.667L358.667 263.333L358.333 262.667z"/>
<path style="fill:#858077; stroke:none;" d="M401 262L402 263L401 262M521 262L522 263L521 262z"/>
<path style="fill:#9da8b6; stroke:none;" d="M531 262L532 263L531 262M171 263L172 264L171 263M230.333 263.667L230.667 264.333L230.333 263.667M289.333 263.667L289.667 264.333L289.333 263.667M349 263L350 264L349 263M401 263L402 264L401 263M410.333 263.667L410.667 264.333L410.333 263.667M522 263L523 264L522 263z"/>
<path style="fill:#858077; stroke:none;" d="M532 263L533 264L532 263M674 263L675 264L674 263z"/>
<path style="fill:#9da8b6; stroke:none;" d="M684 263L685 264L684 263z"/>
<path style="fill:#858077; stroke:none;" d="M724 263L725 264L724 263M214 264L215 265L214 264M349 264L350 265L349 264M539 264L539 271L540 271L539 264z"/>
<path style="fill:#9da8b6; stroke:none;" d="M675 264L676 265L675 264M724 264L725 265L724 264z"/>
<path style="fill:#858077; stroke:none;" d="M170 265L171 266L170 265z"/>
<path style="fill:#9da8b6; stroke:none;" d="M214 265L215 266L214 265z"/>
<path style="fill:#858077; stroke:none;" d="M230 265L231 266L230 265M240 265L241 266L240 265M289 265L290 266L289 265M299 265L300 266L299 265M359 265L360 266L359 265M410 265L411 266L410 265M468.333 265.667L468.667 266.333L468.333 265.667z"/>
<path style="fill:#9da8b6; stroke:none;" d="M533 265L534 266L533 265M676 265L677 266L676 265M715.333 265.667L715.667 266.333L715.333 265.667M170 266L171 267L170 266M240 266L241 267L240 266M299 266L300 267L299 266M359 266L360 267L359 266M400 266L401 267L400 266M425 266L425 269L426 269L425 266z"/>
<path style="fill:#858077; stroke:none;" d="M477.333 266.667L477.667 267.333L477.333 266.667M524 266L525 267L524 266M534 266L535 267L534 266z"/>
<path style="fill:#9da8b6; stroke:none;" d="M686 266L687 267L686 266z"/>
<path style="fill:#858077; stroke:none;" d="M725 266L726 267L725 266z"/>
<path style="fill:#9da8b6; stroke:none;" d="M215 267L216 268L215 267M231.333 267.667L231.667 268.333L231.333 267.667M290.333 267.667L290.667 268.333L290.333 267.667M350 267L351 268L350 267M409 267L410 268L409 267z"/>
<path style="fill:#858077; stroke:none;" d="M434 267L435 268L434 267z"/>
<path style="fill:#9da8b6; stroke:none;" d="M468.333 267.667L468.667 268.333L468.333 267.667M525 267L526 268L525 267z"/>
<path style="fill:#858077; stroke:none;" d="M677 267L678 268L677 267M687 267L688 268L687 267z"/>
<path style="fill:#9da8b6; stroke:none;" d="M725 267L726 268L725 267M169 268L170 269L169 268M178 268L179 269L178 268M206 268L207 269L206 268M241 268L242 269L241 268M300 268L301 269L300 268z"/>
<path style="fill:#858077; stroke:none;" d="M350 268L351 269L350 268z"/>
<path style="fill:#9da8b6; stroke:none;" d="M360 268L361 269L360 268z"/>
<path style="fill:#858077; stroke:none;" d="M399 268L400 269L399 268M409 268L410 269L409 268z"/>
<path style="fill:#9da8b6; stroke:none;" d="M434.333 268.667L434.667 269.333L434.333 268.667M535 268L536 269L535 268M678 268L679 269L678 268M716.333 268.667L716.667 269.333L716.333 268.667z"/>
<path style="fill:#858077; stroke:none;" d="M178 269L179 270L178 269M216 269L217 270L216 269M425 269L426 270L425 269M526 269L527 270L526 269M536 269L537 270L536 269z"/>
<path style="fill:#9da8b6; stroke:none;" d="M688 269L689 270L688 269M726 269L727 270L726 269z"/>
<path style="fill:#858077; stroke:none;" d="M168 270L169 271L168 270z"/>
<path style="fill:#9da8b6; stroke:none;" d="M207 270L208 271L207 270M216 270L217 271L216 270M232 270L233 271L232 270M242 270L243 271L242 270M291 270L292 271L291 270M301 270L302 271L301 270M351 270L352 271L351 270M361 270L362 271L361 270z"/>
<path style="fill:#858077; stroke:none;" d="M398 270L399 271L398 270z"/>
<path style="fill:#9da8b6; stroke:none;" d="M408 270L409 271L408 270z"/>
<path style="fill:#858077; stroke:none;" d="M467 270L468 271L467 270z"/>
<path style="fill:#9da8b6; stroke:none;" d="M527 270L528 271L527 270z"/>
<path style="fill:#858077; stroke:none;" d="M679 270L680 271L679 270M689 270L690 271L689 270M727 270L728 271L727 270z"/>
<path style="fill:#9da8b6; stroke:none;" d="M168 271L169 272L168 271M177 271L178 272L177 271z"/>
<path style="fill:#858077; stroke:none;" d="M207 271L208 272L207 271M232 271L233 272L232 271M243 271L244 272L243 271M291 271L292 272L291 271M302 271L303 272L302 271M435 271L436 272L435 271z"/>
<path style="fill:#9da8b6; stroke:none;" d="M467 271L468 272L467 271M476 271L477 272L476 271M537 271L538 272L537 271M680 271L681 272L680 271M717 271L718 272L717 271M217 272L218 273L217 272M352 272L353 273L352 272M397 272L398 273L397 272M407 272L408 273L407 272M426 272L427 273L426 272z"/>
<path style="fill:#858077; stroke:none;" d="M476 272L477 273L476 272M538 272L539 273L538 272z"/>
<path style="fill:#9da8b6; stroke:none;" d="M690 272L691 273L690 272M728 272L729 273L728 272M167 273L168 274L167 273M176 273L177 274L176 273M208 273L209 274L208 273z"/>
<path style="fill:#858077; stroke:none;" d="M233 273L234 274L233 273z"/>
<path style="fill:#9da8b6; stroke:none;" d="M244 273L245 274L244 273z"/>
<path style="fill:#858077; stroke:none;" d="M292 273L293 274L292 273z"/>
<path style="fill:#9da8b6; stroke:none;" d="M303 273L304 274L303 273M363 273L364 274L363 273z"/>
<path style="fill:#858077; stroke:none;" d="M396 273L397 274L396 273M426 273L427 274L426 273M436 273L437 274L436 273z"/>
<path style="fill:#9da8b6; stroke:none;" d="M466 273L467 274L466 273z"/>
<path style="fill:#858077; stroke:none;" d="M529 273L530 274L529 273z"/>
<path style="fill:#9da8b6; stroke:none;" d="M718 273L719 274L718 273M729 273L730 274L729 273z"/>
<path style="fill:#858077; stroke:none;" d="M176 274L177 275L176 274M218 274L219 275L218 274z"/>
<path style="fill:#9da8b6; stroke:none;" d="M234 274L235 275L234 274M245 274L246 275L245 274M304 274L305 275L304 274M353 274L354 275L353 274M364 274L365 275L364 274z"/>
<path style="fill:#858077; stroke:none;" d="M395 274L396 275L395 274z"/>
<path style="fill:#9da8b6; stroke:none;" d="M406 274L407 275L406 274z"/>
<path style="fill:#858077; stroke:none;" d="M465 274L466 275L465 274z"/>
<path style="fill:#9da8b6; stroke:none;" d="M475 274L476 275L475 274M530 274L531 275L530 274M539 274L540 275L539 274z"/>
<path style="fill:#858077; stroke:none;" d="M682 274L683 275L682 274z"/>
<path style="fill:#9da8b6; stroke:none;" d="M692 274L693 275L692 274M730 274L731 275L730 274M166 275L167 276L166 275M209 275L210 276L209 275M218 275L219 276L218 275M246 275L247 276L246 275M305 275L306 276L305 275M365 275L366 276L365 275z"/>
<path style="fill:#858077; stroke:none;" d="M394 275L395 276L394 275z"/>
<path style="fill:#9da8b6; stroke:none;" d="M427 275L428 276L427 275M437 275L438 276L437 275z"/>
<path style="fill:#858077; stroke:none;" d="M475 275L476 276L475 275z"/>
<path style="fill:#9da8b6; stroke:none;" d="M683 275L684 276L683 275z"/>
<path style="fill:#858077; stroke:none;" d="M719 275L720 276L719 275z"/>
<path style="fill:#9da8b6; stroke:none;" d="M731 275L732 276L731 275M175 276L176 277L175 276z"/>
<path style="fill:#858077; stroke:none;" d="M209 276L210 277L209 276z"/>
<path style="fill:#9da8b6; stroke:none;" d="M235 276L236 277L235 276z"/>
<path style="fill:#858077; stroke:none;" d="M248 276L249 277L248 276z"/>
<path style="fill:#9da8b6; stroke:none;" d="M294 276L295 277L294 276z"/>
<path style="fill:#858077; stroke:none;" d="M307 276L308 277L307 276M354 276L355 277L354 276z"/>
<path style="fill:#9da8b6; stroke:none;" d="M366 276L367 277L366 276z"/>
<path style="fill:#858077; stroke:none;" d="M393 276L394 277L393 276M405 276L406 277L405 276z"/>
<path style="fill:#9da8b6; stroke:none;" d="M438 276L439 277L438 276z"/>
<path style="fill:#858077; stroke:none;" d="M531 276L532 277L531 276z"/>
<path style="fill:#9da8b6; stroke:none;" d="M720 276L721 277L720 276M732 276L733 277L732 276M219 277L220 278L219 277M236 277L237 278L236 277M249 277L250 278L249 277M295 277L296 278L295 277M308 277L309 278L308 277M355 277L356 278L355 277M367 277L368 278L367 277M392 277L393 278L392 277M404 277L405 278L404 277M428 277L429 278L428 277M439 277L440 278L439 277z"/>
<path style="fill:#858077; stroke:none;" d="M474 277L475 278L474 277z"/>
<path style="fill:#9da8b6; stroke:none;" d="M532 277L533 278L532 277z"/>
<path style="fill:#858077; stroke:none;" d="M684 277L685 278L684 277M734 277L735 278L734 277z"/>
<path style="fill:#9da8b6; stroke:none;" d="M165 278L166 279L165 278M174 278L175 279L174 278M210 278L211 279L210 278M251 278L252 279L251 278M310 278L311 279L310 278M356 278L357 279L356 278M369 278L370 279L369 278z"/>
<path style="fill:#858077; stroke:none;" d="M390 278L391 279L390 278z"/>
<path style="fill:#9da8b6; stroke:none;" d="M403 278L404 279L403 278z"/>
<path style="fill:#858077; stroke:none;" d="M461 278L462 279L461 278z"/>
<path style="fill:#9da8b6; stroke:none;" d="M685 278L686 279L685 278M736 278L737 279L736 278z"/>
<path style="fill:#858077; stroke:none;" d="M174 279L175 280L174 279z"/>
<path style="fill:#9da8b6; stroke:none;" d="M220 279L221 280L220 279M253 279L254 280L253 279z"/>
<path style="fill:#858077; stroke:none;" d="M254 279L255 280L254 279z"/>
<path style="fill:#9da8b6; stroke:none;" d="M276.667 279.333L277.333 279.667L276.667 279.333z"/>
<path style="fill:#858077; stroke:none;" d="M279 279L279 286L280 286L279 279z"/>
<path style="fill:#9da8b6; stroke:none;" d="M312 279L313 280L312 279z"/>
<path style="fill:#858077; stroke:none;" d="M313 279L314 280L313 279z"/>
<path style="fill:#9da8b6; stroke:none;" d="M335.667 279.333L336.333 279.667L335.667 279.333z"/>
<path style="fill:#858077; stroke:none;" d="M338 279L338 286L339 286L338 279z"/>
<path style="fill:#9da8b6; stroke:none;" d="M371 279L372 280L371 279M388 279L389 280L388 279M429 279L430 280L429 279M442 279L443 280L442 279z"/>
<path style="fill:#858077; stroke:none;" d="M459 279L460 280L459 279M533 279L534 280L533 279M722 279L723 280L722 279z"/>
<path style="fill:#9da8b6; stroke:none;" d="M738 279L739 280L738 279z"/>
<path style="fill:#858077; stroke:none;" d="M739 279L740 280L739 279z"/>
<path style="fill:#9da8b6; stroke:none;" d="M164 280L165 281L164 280M211 280L212 281L211 280M257 280L258 281L257 280z"/>
<path style="fill:#858077; stroke:none;" d="M258.667 280.333L259.333 280.667L258.667 280.333M270.667 280.333L271.333 280.667L270.667 280.333z"/>
<path style="fill:#9da8b6; stroke:none;" d="M272 280L273 281L272 280M316 280L317 281L316 280z"/>
<path style="fill:#858077; stroke:none;" d="M317.667 280.333L318.333 280.667L317.667 280.333M329 280L330 281L329 280z"/>
<path style="fill:#9da8b6; stroke:none;" d="M330.667 280.333L331.333 280.667L330.667 280.333M374 280L375 281L374 280z"/>
<path style="fill:#858077; stroke:none;" d="M375 280L376 281L375 280M384 280L385 281L384 280z"/>
<path style="fill:#9da8b6; stroke:none;" d="M385.667 280.333L386.333 280.667L385.667 280.333M430 280L431 281L430 280M445 280L446 281L445 280z"/>
<path style="fill:#858077; stroke:none;" d="M446 280L447 281L446 280M456 280L457 281L456 280z"/>
<path style="fill:#9da8b6; stroke:none;" d="M457 280L458 281L457 280z"/>
<path style="fill:#858077; stroke:none;" d="M472 280L473 281L472 280z"/>
<path style="fill:#9da8b6; stroke:none;" d="M534 280L535 281L534 280z"/>
<path style="fill:#858077; stroke:none;" d="M723 280L724 281L723 280z"/>
<path style="fill:#9da8b6; stroke:none;" d="M741.667 280.333L742.333 280.667L741.667 280.333z"/>
<path style="fill:#858077; stroke:none;" d="M743.667 280.333L744.333 280.667L743.667 280.333M756.667 280.333L757.333 280.667L756.667 280.333z"/>
<path style="fill:#9da8b6; stroke:none;" d="M758 280L759 281L758 280M173 281L174 282L173 281z"/>
<path style="fill:#858077; stroke:none;" d="M211 281L212 282L211 281z"/>
<path style="fill:#9da8b6; stroke:none;" d="M240 281L241 282L240 281M299 281L300 282L299 281M359 281L360 282L359 281M400 281L401 282L400 281M471 281L472 282L471 281M535 281L536 282L535 281M687 281L688 282L687 281z"/>
<path style="fill:#858077; stroke:none;" d="M163 282L164 283L163 282z"/>
<path style="fill:#9da8b6; stroke:none;" d="M221 282L222 283L221 282M241 282L242 283L241 282M300 282L301 283L300 282M360 282L361 283L360 282M399 282L400 283L399 282M470 282L471 283L470 282M688 282L689 283L688 282M726 282L727 283L726 282M163 283L164 284L163 283M172 283L173 284L172 283M212 283L213 284L212 283z"/>
<path style="fill:#858077; stroke:none;" d="M242 283L243 284L242 283M301 283L302 284L301 283M361 283L362 284L361 283M398 283L399 284L398 283z"/>
<path style="fill:#9da8b6; stroke:none;" d="M433 283L434 284L433 283M469 283L470 284L469 283z"/>
<path style="fill:#858077; stroke:none;" d="M536 283L537 284L536 283M727 283L728 284L727 283M172 284L173 285L172 284z"/>
<path style="fill:#9da8b6; stroke:none;" d="M222 284L223 285L222 284M244 284L245 285L244 284M303 284L304 285L303 284M363 284L364 285L363 284M396 284L397 285L396 284M434 284L435 285L434 284z"/>
<path style="fill:#858077; stroke:none;" d="M468 284L469 285L468 284z"/>
<path style="fill:#9da8b6; stroke:none;" d="M537 284L538 285L537 284z"/>
<path style="fill:#858077; stroke:none;" d="M689 284L690 285L689 284z"/>
<path style="fill:#9da8b6; stroke:none;" d="M729 284L730 285L729 284M162 285L163 286L162 285M213 285L214 286L213 285M246 285L247 286L246 285M305 285L306 286L305 285z"/>
<path style="fill:#858077; stroke:none;" d="M364 285L365 286L364 285M395 285L396 286L395 285z"/>
<path style="fill:#9da8b6; stroke:none;" d="M436 285L437 286L436 285M466 285L467 286L466 285M690 285L691 286L690 285M731 285L732 286L731 285M171 286L172 287L171 286z"/>
<path style="fill:#858077; stroke:none;" d="M213 286L214 287L213 286M223 286L224 287L223 286M248 286L249 287L248 286z"/>
<path style="fill:#9da8b6; stroke:none;" d="M249 286L250 287L249 286z"/>
<path style="fill:#858077; stroke:none;" d="M307 286L308 287L307 286z"/>
<path style="fill:#9da8b6; stroke:none;" d="M308 286L309 287L308 286M337 286L338 287L337 286M367 286L368 287L367 286M392 286L393 287L392 286z"/>
<path style="fill:#858077; stroke:none;" d="M393 286L394 287L393 286M437 286L438 287L437 286z"/>
<path style="fill:#9da8b6; stroke:none;" d="M438 286L439 287L438 286M464 286L465 287L464 286z"/>
<path style="fill:#858077; stroke:none;" d="M538 286L539 287L538 286M733 286L734 287L733 286z"/>
<path style="fill:#9da8b6; stroke:none;" d="M734 286L735 287L734 286M766 286L767 287L766 286z"/>
<path style="fill:#858077; stroke:none;" d="M767 286L768 287L767 286z"/>
<path style="fill:#9da8b6; stroke:none;" d="M214 287L215 288L214 287M223 287L224 288L223 287z"/>
<path style="fill:#858077; stroke:none;" d="M251 287L252 288L251 287z"/>
<path style="fill:#9da8b6; stroke:none;" d="M252 287L253 288L252 287M275.667 287.333L276.333 287.667L275.667 287.333z"/>
<path style="fill:#858077; stroke:none;" d="M310 287L311 288L310 287z"/>
<path style="fill:#9da8b6; stroke:none;" d="M311 287L312 288L311 287M334.667 287.333L335.333 287.667L334.667 287.333z"/>
<path style="fill:#858077; stroke:none;" d="M369 287L370 288L369 287z"/>
<path style="fill:#9da8b6; stroke:none;" d="M370 287L371 288L370 287M389.667 287.333L390.333 287.667L389.667 287.333M440.667 287.333L441.333 287.667L440.667 287.333M461 287L462 288L461 287z"/>
<path style="fill:#858077; stroke:none;" d="M462 287L463 288L462 287z"/>
<path style="fill:#9da8b6; stroke:none;" d="M539 287L540 288L539 287M580 287L581 288L580 287M588 287L589 288L588 287z"/>
<path style="fill:#858077; stroke:none;" d="M691 287L692 288L691 287M736 287L737 288L736 287z"/>
<path style="fill:#9da8b6; stroke:none;" d="M737 287L738 288L737 287M762 287L763 288L762 287z"/>
<path style="fill:#858077; stroke:none;" d="M763 287L764 288L763 287M255.667 288.333L256.333 288.667L255.667 288.333z"/>
<path style="fill:#9da8b6; stroke:none;" d="M257.667 288.333L258.333 288.667L257.667 288.333M269 288L269 289L272 289L269 288z"/>
<path style="fill:#858077; stroke:none;" d="M272 288L273 289L272 288M314.667 288.333L315.333 288.667L314.667 288.333z"/>
<path style="fill:#9da8b6; stroke:none;" d="M316.667 288.333L317.333 288.667L316.667 288.333M328 288L328 289L331 289L328 288z"/>
<path style="fill:#858077; stroke:none;" d="M331 288L332 289L331 288M373 288L374 289L373 288z"/>
<path style="fill:#9da8b6; stroke:none;" d="M374.667 288.333L375.333 288.667L374.667 288.333M384 288L384 289L387 289L384 288z"/>
<path style="fill:#858077; stroke:none;" d="M387 288L388 289L387 288M443 288L444 289L443 288z"/>
<path style="fill:#9da8b6; stroke:none;" d="M444 288L444 289L447 289L444 288M456.667 288.333L457.333 288.667L456.667 288.333z"/>
<path style="fill:#858077; stroke:none;" d="M458 288L459 289L458 288M741 288L742 289L741 288z"/>
<path style="fill:#9da8b6; stroke:none;" d="M742.667 288.333L743.333 288.667L742.667 288.333M755 288L755 289L758 289L755 288z"/>
<path style="fill:#858077; stroke:none;" d="M758 288L759 289L758 288M968 308L968 311L969 311L968 308z"/>
<path style="fill:#9da8b6; stroke:none;" d="M968 311L968 314L969 314L968 311z"/>
<path style="fill:#858077; stroke:none;" d="M967 315L968 316L967 315z"/>
<path style="fill:#9da8b6; stroke:none;" d="M967.333 316.667L967.667 317.333L967.333 316.667z"/>
<path style="fill:#858077; stroke:none;" d="M966 319L967 320L966 319z"/>
<path style="fill:#9da8b6; stroke:none;" d="M966 320L967 321L966 320z"/>
<path style="fill:#858077; stroke:none;" d="M965 322L966 323L965 322M964 324L965 325L964 324z"/>
<path style="fill:#9da8b6; stroke:none;" d="M964 325L965 326L964 325z"/>
<path style="fill:#858077; stroke:none;" d="M963 326L964 327L963 326z"/>
<path style="fill:#9da8b6; stroke:none;" d="M963 327L964 328L963 327z"/>
<path style="fill:#858077; stroke:none;" d="M962 328L963 329L962 328z"/>
<path style="fill:#9da8b6; stroke:none;" d="M961 330L962 331L961 330z"/>
<path style="fill:#858077; stroke:none;" d="M960 331L961 332L960 331z"/>
<path style="fill:#9da8b6; stroke:none;" d="M960 332L961 333L960 332M959 333L960 334L959 333z"/>
<path style="fill:#858077; stroke:none;" d="M958 334L959 335L958 334M957 335L958 336L957 335z"/>
<path style="fill:#9da8b6; stroke:none;" d="M956 337L957 338L956 337M955 338L956 339L955 338M954 339L955 340L954 339M953 340L954 341L953 340z"/>
<path style="fill:#858077; stroke:none;" d="M951 341L952 342L951 341M950 342L951 343L950 342z"/>
<path style="fill:#9da8b6; stroke:none;" d="M949 343L950 344L949 343z"/>
<path style="fill:#858077; stroke:none;" d="M947 344L948 345L947 344z"/>
<path style="fill:#9da8b6; stroke:none;" d="M948 344L949 345L948 344M946 345L947 346L946 345z"/>
<path style="fill:#858077; stroke:none;" d="M944 346L945 347L944 346M942 347L943 348L942 347z"/>
<path style="fill:#9da8b6; stroke:none;" d="M943 347L944 348L943 347z"/>
<path style="fill:#858077; stroke:none;" d="M940 348L941 349L940 348z"/>
<path style="fill:#9da8b6; stroke:none;" d="M941 348L942 349L941 348z"/>
<path style="fill:#858077; stroke:none;" d="M938 349L939 350L938 349M935 350L936 351L935 350z"/>
<path style="fill:#9da8b6; stroke:none;" d="M936 350L937 351L936 350z"/>
<path style="fill:#858077; stroke:none;" d="M931 351L932 352L931 351z"/>
<path style="fill:#9da8b6; stroke:none;" d="M932.667 351.333L933.333 351.667L932.667 351.333z"/>
<path style="fill:#858077; stroke:none;" d="M924 352L924 353L927 353L924 352z"/>
<path style="fill:#9da8b6; stroke:none;" d="M927 352L927 353L930 353L927 352z"/>
</svg>
